<svg width="614" height="539" viewBox="0 0 614 539" fill="none" xmlns="http://www.w3.org/2000/svg">
<path d="M553.497 317C519.692 393.694 468.136 474.399 322.496 508.5C166.269 511.427 67.4606 406.826 38.4966 366.5C52.1345 300.644 118.672 171.081 281.961 134.973C435.585 137.738 567.06 286.228 553.497 317Z" fill="#FFD599"/>
<path d="M192.154 150.094C216.186 184.97 177.275 180.344 147.396 200.933C117.517 221.522 107.983 259.529 83.9512 224.653C59.9196 189.778 65.5844 113.325 72.1156 91.6839C93.3113 94.2193 168.122 115.219 192.154 150.094Z" fill="#FFD599"/>
<path d="M164.722 174.972C184.502 206.174 156.901 212.204 134.496 226.407C105.837 232.984 103.366 257.609 83.5856 226.407C63.8056 195.205 62.3974 130.442 69.8822 115.079C86.3624 119.208 144.942 143.77 164.722 174.972Z" fill="#FFBEBF"/>
<path d="M481.32 198.16C459.594 234.517 447.622 197.206 416.474 178.593C385.326 159.98 346.796 167.112 368.522 130.755C390.247 94.3986 462.133 67.7621 484.531 64.7037C491.038 85.0346 503.046 161.804 481.32 198.16Z" fill="#FFD599"/>
<path d="M483.996 193.228C470.666 217 452.135 199.975 428.996 187C405.858 174.025 380.537 176.634 398.606 144.411C416.675 112.189 471.422 81.2068 488.496 80.4998C492.687 96.9646 502.066 161.005 483.996 193.228Z" fill="#FFBEBF"/>
<path d="M244.997 335.5C244.997 348.816 219.173 379 195.465 379C171.756 379 147.997 351.036 147.997 335.5C147.997 319.964 171.756 292 195.465 292C219.173 292 244.997 322.184 244.997 335.5Z" fill="#7BAD79"/>
<ellipse cx="201.997" cy="336.5" rx="31" ry="29.5" fill="black"/>
<ellipse cx="212.997" cy="322.5" rx="7" ry="8.5" transform="rotate(-28.2314 212.997 322.5)" fill="white"/>
<path d="M236.497 318.208C238.696 325.112 221.195 286.564 191.522 298.009C160.219 306.171 156.196 325.112 153.997 318.208C153.997 318.208 166.566 299.729 189.72 292.354C212.875 284.979 234.298 311.304 236.497 318.208Z" fill="black"/>
<path d="M452.996 328.292C452.996 341.608 427.173 371.792 403.465 371.792C379.756 371.792 355.996 343.827 355.996 328.292C355.996 312.756 379.756 284.792 403.465 284.792C427.173 284.792 452.996 314.975 452.996 328.292Z" fill="#7BAD79"/>
<ellipse cx="409.996" cy="329.292" rx="31" ry="29.5" fill="black"/>
<ellipse cx="420.996" cy="315.291" rx="7" ry="8.5" transform="rotate(-28.2314 420.996 315.291)" fill="white"/>
<path d="M444.496 311C446.695 317.904 429.195 279.356 399.521 290.8C368.218 298.962 364.195 317.904 361.996 311C361.996 311 374.566 292.52 397.72 285.145C420.875 277.77 442.297 304.096 444.496 311Z" fill="black"/>
<path d="M311.496 483.5C281.46 483.529 276.996 455.5 276.996 455.5C309.755 425 309.755 429 339.496 447C339.496 447 341.532 483.471 311.496 483.5Z" fill="#840000"/>
<path d="M332.689 401.886C325.341 411.524 322.43 418.789 307.512 425.04C297.058 421.389 286.68 417.23 278.873 406.337C273.286 388.737 289.602 389.395 304.463 388.166C319.324 386.937 336.277 386.036 332.689 401.886Z" fill="black"/>
<path d="M307.675 428.44C308.768 441.65 293.144 453.724 272.779 455.408C252.414 457.092 235.019 447.749 233.927 434.539C232.834 421.329 245.384 450.148 272.161 447.934C304.052 445.296 306.583 415.23 307.675 428.44Z" fill="black"/>
<path d="M381.423 422.341C382.516 435.55 366.892 447.624 346.527 449.309C326.162 450.993 308.768 441.65 307.675 428.44C306.583 415.23 319.132 444.049 345.909 441.835C377.8 439.197 380.331 409.131 381.423 422.341Z" fill="black"/>
<path d="M487.19 366.625C534.996 345.018 562.383 340.655 612.418 348.636" stroke="black" stroke-width="2"/>
<path d="M486.001 366.265C537.158 354.633 564.864 355.823 612.3 373.628" stroke="black" stroke-width="2"/>
<path d="M485.996 365.391C538.271 369.819 564.312 379.355 604.115 410.706" stroke="black" stroke-width="2"/>
<path d="M1.00004 398.14C52.1789 386.608 79.8831 387.853 127.284 405.751" stroke="black" stroke-width="2"/>
<path d="M2.65149 423.075C50.5163 401.599 77.9149 397.311 127.928 405.428" stroke="black" stroke-width="2"/>
<path d="M11.1295 457.652C50.9729 423.523 76.0425 411.667 126.31 405.317" stroke="black" stroke-width="2"/>
<path d="M260.757 237.103L206.669 161.72C221.308 152.58 230.169 150.72 243.669 145.72L260.757 237.103Z" fill="#FFC575"/>
<path d="M290.803 229.904L261.496 140.5C277.496 135.5 286.496 133.5 302.996 137L290.803 229.904Z" fill="#FFC575"/>
<path d="M316.489 232L311.996 137.5C328.996 140.5 338.996 141.5 352.296 146.205L316.489 232Z" fill="#FFC575"/>
</svg>
