<svg width="699" height="816" viewBox="0 0 699 816" fill="none" xmlns="http://www.w3.org/2000/svg">
<path d="M363.319 436.181C452.195 428.376 564.051 706.5 541.072 768.104C518.092 829.707 262.131 827.707 194.815 768.104C127.5 708.5 274.443 443.986 363.319 436.181Z" fill="#FFD599"/>
<path d="M401.271 482.143C466.518 475.238 548.636 721.287 531.766 775.786C514.896 830.286 326.985 828.516 277.566 775.786C228.147 723.056 336.024 489.047 401.271 482.143Z" fill="#FEE1B8"/>
<path d="M638.5 317C604.695 393.694 553.14 474.399 407.5 508.5C251.272 511.427 152.464 406.826 123.5 366.5C137.138 300.644 203.676 171.081 366.964 134.973C520.589 137.738 652.064 286.228 638.5 317Z" fill="#FFD599"/>
<path d="M277.158 150.094C301.189 184.97 262.279 180.344 232.4 200.933C202.52 221.522 192.987 259.529 168.955 224.653C144.923 189.778 150.588 113.325 157.119 91.6839C178.315 94.2193 253.126 115.219 277.158 150.094Z" fill="#FFD599"/>
<path d="M249.726 174.972C269.506 206.174 241.905 212.204 219.5 226.407C190.841 232.984 188.369 257.609 168.589 226.407C148.809 195.205 147.401 130.442 154.886 115.079C171.366 119.208 229.946 143.77 249.726 174.972Z" fill="#FFBEBF"/>
<path d="M566.324 198.16C544.598 234.517 532.626 197.206 501.478 178.593C470.329 159.98 431.799 167.112 453.525 130.755C475.251 94.3986 547.137 67.7621 569.534 64.7037C576.042 85.0346 588.049 161.804 566.324 198.16Z" fill="#FFD599"/>
<path d="M569 193.228C555.669 217 537.138 199.975 514 187C490.862 174.025 465.54 176.634 483.609 144.411C501.679 112.189 556.425 81.2068 573.5 80.4998C577.69 96.9646 587.069 161.005 569 193.228Z" fill="#FFBEBF"/>
<path d="M330 335.5C330 348.816 304.176 379 280.468 379C256.76 379 233 351.036 233 335.5C233 319.964 256.76 292 280.468 292C304.176 292 330 322.184 330 335.5Z" fill="#7BAD79"/>
<ellipse cx="287" cy="336.5" rx="31" ry="29.5" fill="black"/>
<ellipse cx="298" cy="322.5" rx="7" ry="8.5" transform="rotate(-28.2314 298 322.5)" fill="white"/>
<path d="M321.5 318.208C323.699 325.112 306.198 286.564 276.525 298.009C245.222 306.171 241.199 325.112 239 318.208C239 318.208 251.569 299.729 274.724 292.354C297.878 284.979 319.301 311.304 321.5 318.208Z" fill="black"/>
<path d="M538 328.292C538 341.608 512.176 371.792 488.468 371.792C464.76 371.792 441 343.827 441 328.292C441 312.756 464.76 284.792 488.468 284.792C512.176 284.792 538 314.975 538 328.292Z" fill="#7BAD79"/>
<ellipse cx="495" cy="329.292" rx="31" ry="29.5" fill="black"/>
<ellipse cx="506" cy="315.291" rx="7" ry="8.5" transform="rotate(-28.2314 506 315.291)" fill="white"/>
<path d="M529.5 311C531.699 317.904 514.198 279.356 484.525 290.8C453.222 298.962 449.199 317.904 447 311C447 311 459.569 292.52 482.724 285.145C505.878 277.77 527.301 304.096 529.5 311Z" fill="black"/>
<path d="M396.5 483.5C366.464 483.529 362 455.5 362 455.5C394.758 425 394.758 429 424.5 447C424.5 447 426.536 483.471 396.5 483.5Z" fill="#840000"/>
<path d="M417.693 401.886C410.345 411.524 407.433 418.789 392.516 425.04C382.061 421.389 371.683 417.23 363.877 406.337C358.289 388.737 374.605 389.395 389.466 388.166C404.327 386.937 421.281 386.036 417.693 401.886Z" fill="black"/>
<path d="M392.679 428.44C393.771 441.65 378.148 453.724 357.783 455.408C337.418 457.092 320.023 447.749 318.93 434.539C317.838 421.329 330.388 450.148 357.165 447.934C389.056 445.296 391.586 415.23 392.679 428.44Z" fill="black"/>
<path d="M466.427 422.341C467.519 435.55 451.896 447.624 431.531 449.309C411.166 450.993 393.771 441.65 392.679 428.44C391.586 415.23 404.136 444.049 430.913 441.835C462.804 439.197 465.334 409.131 466.427 422.341Z" fill="black"/>
<path d="M572.194 366.625C620 345.018 647.386 340.655 697.421 348.636" stroke="black" stroke-width="2"/>
<path d="M571.005 366.265C622.161 354.633 649.868 355.823 697.303 373.628" stroke="black" stroke-width="2"/>
<path d="M571 365.391C623.275 369.819 649.316 379.355 689.119 410.706" stroke="black" stroke-width="2"/>
<path d="M86.0034 398.14C137.182 386.608 164.886 387.853 212.287 405.751" stroke="black" stroke-width="2"/>
<path d="M87.655 423.075C135.52 401.599 162.918 397.311 212.931 405.428" stroke="black" stroke-width="2"/>
<path d="M96.1328 457.652C135.976 423.523 161.046 411.667 211.314 405.317" stroke="black" stroke-width="2"/>
<path d="M345.761 237.103L291.673 161.72C306.311 152.58 315.173 150.72 328.673 145.72L345.761 237.103Z" fill="#FFC575"/>
<path d="M294.297 557.98L243.806 544.001C250.32 531.905 255.153 526.557 261.991 517.245L294.297 557.98Z" fill="#FFC575"/>
<path d="M274.112 589.564L222.821 578.886C228.538 566.393 233.014 560.743 239.234 551.008L274.112 589.564Z" fill="#FFC575"/>
<path d="M254.063 627.549L201.894 622.733C206.163 609.675 209.972 603.555 215.053 593.18L254.063 627.549Z" fill="#FFC575"/>
<path d="M375.806 229.904L346.5 140.5C362.5 135.5 371.5 133.5 388 137L375.806 229.904Z" fill="#FFC575"/>
<path d="M401.493 232L397 137.5C414 140.5 424 141.5 437.3 146.205L401.493 232Z" fill="#FFC575"/>
<path d="M202 688.444C164.089 670.061 128.479 708 82.7679 708C37.0565 708 0 658.108 0 596.564C0 535.019 12.7335 688.444 82.7679 688.444C147.883 697.963 202 626.899 202 688.444Z" fill="#FFD599"/>
<path d="M423.5 698.439C378.5 677.939 449.5 826.439 404.5 813.439C358.95 800.28 347 724.94 336 653.939C336 583.247 340.5 804.439 404.5 804.439C442.884 804.439 362.5 638.439 423.5 698.439Z" fill="#BD8F4F"/>
<path d="M324 727.118C324 750.31 303.154 767.114 293.532 767.114C283.911 767.114 265.202 792.61 261.461 727.118C257.094 650.681 284.98 685.625 293.532 688.124C310.103 699.122 324 703.925 324 727.118Z" fill="#FFD599"/>
<path d="M508.064 627.708C517.836 654.269 564.211 794.746 498.238 790.771C486.942 790.091 502.208 724.891 456.186 677.036C481.665 661.54 498.569 785.281 503.153 785.557C553.182 788.572 506.938 633.092 508.064 627.708Z" fill="#BD8F4F"/>
<ellipse cx="289.712" cy="785.729" rx="19.2275" ry="8.29539" transform="rotate(24.7074 289.712 785.729)" fill="#FFD599"/>
<path d="M231.689 663.081C266.705 664.131 328.041 697.957 327.186 726.473C326.33 754.989 297.251 777.254 262.235 776.203C227.219 775.153 315.07 777.788 316.619 726.156C318.168 674.524 196.674 662.03 231.689 663.081Z" fill="#BD8F4F"/>
<path d="M269.093 772.025C285.086 772.025 311.313 781.693 311.096 788.931C310.879 796.169 304.993 801.953 287.596 801.431C270.199 800.909 311.596 802.931 305.596 788.931C299.596 774.931 265.596 777.93 269.093 772.025Z" fill="#BD8F4F"/>
</svg>
