<svg width="514" height="723" viewBox="0 0 514 723" fill="none" xmlns="http://www.w3.org/2000/svg">
<path d="M177.242 644.649C186.727 641.467 192.13 652.872 197.69 669.448C203.25 686.024 206.863 701.493 197.377 704.675C187.891 707.857 175.695 696.999 170.134 680.423C164.574 663.848 167.756 647.831 177.242 644.649Z" fill="#FFA35D"/>
<path d="M182.557 649.091C185.946 658.199 175.411 670.526 159.026 676.624C142.641 682.723 126.61 680.283 123.22 671.176C119.83 662.068 131.487 655.19 147.872 649.091C164.257 642.993 179.167 639.984 182.557 649.091Z" fill="#FFA35D"/>
<ellipse cx="167.209" cy="674.149" rx="31.6566" ry="17.5961" transform="rotate(-59.1575 167.209 674.149)" fill="#FFA35D"/>
<path d="M353.078 636.636C356.169 627.12 368.549 629.569 385.177 634.97C401.806 640.37 416.386 646.677 413.295 656.192C410.205 665.708 394.22 669.044 377.591 663.644C360.963 658.243 349.988 646.152 353.078 636.636Z" fill="#FFA35D"/>
<path d="M359.812 635.01C369.147 637.708 372.78 653.512 367.926 670.308C363.071 687.104 351.568 698.532 342.232 695.834C332.896 693.135 334.309 679.675 339.163 662.879C344.018 646.083 350.476 632.312 359.812 635.01Z" fill="#FFA35D"/>
<ellipse cx="370.809" cy="662.259" rx="31.6566" ry="17.5961" transform="rotate(-112.622 370.809 662.259)" fill="#FFA35D"/>
<path d="M419.297 517.753C423.388 606.984 386.635 678.531 268.635 678.531C150.635 678.531 97.6347 615.06 97.6347 517.753C115.395 429.803 171.738 310.486 268.635 315.531C341.404 319.32 403.812 442.611 419.297 517.753Z" fill="#222430"/>
<path d="M377.79 559.253C380.636 619.453 355.065 667.721 272.97 667.721C190.874 667.721 154 624.901 154 559.253C166.356 499.918 205.556 449.818 272.97 453.221C323.597 455.777 367.016 508.559 377.79 559.253Z" fill="#F4F4F4"/>
<path d="M353.869 371.464C355.871 375.89 335.358 401.753 263.632 401.753C181.381 401.753 167 376.29 167 371.464C175.692 367.103 216.211 384.202 263.632 384.452C299.245 384.64 346.291 367.738 353.869 371.464Z" fill="#1C1D28"/>
<path d="M447 199.753C452.136 310.253 397.879 388.438 261.243 388.438C124.606 388.438 54.4999 325.252 54.4999 213.938C76.7967 105.026 139.593 -5.99546 261.243 0.251921C352.602 4.94373 427.559 106.701 447 199.753Z" fill="#222430"/>
<path d="M498.219 405.361C506.84 425.115 486.131 453.216 451.964 468.128C417.797 483.04 383.111 479.115 374.489 459.362C365.868 439.608 395.333 436.504 429.5 421.592C463.667 406.68 489.598 385.607 498.219 405.361Z" fill="#222430"/>
<path d="M130.021 465.965C116.628 482.851 82.0928 477.761 52.8852 454.595C23.6775 431.429 10.8575 398.961 24.2507 382.074C37.644 365.188 54.2187 389.746 83.4263 412.912C112.634 436.077 143.414 449.079 130.021 465.965Z" fill="#222430"/>
<path d="M257.5 234.254C257.5 309.641 252.393 370.755 187.5 370.755C122.607 370.755 57.5 319.754 75 234.254C89.9415 161.254 143 97.7542 187.5 97.7542C252.393 97.7542 257.487 240.472 257.5 234.254Z" fill="#F4F4F4"/>
<path d="M433.5 234.254C445.5 322.754 392.5 362.255 328.5 370.755C263.607 370.755 257.5 309.641 257.5 234.254C257.5 158.868 275.107 97.7542 340 97.7542C374.5 97.7542 421.5 145.754 433.5 234.254Z" fill="#F4F4F4"/>
<path d="M321 324.255C393.5 383.253 297.5 383.253 257.5 383.253C192.607 383.253 110.5 370.755 204 310.755C225.498 296.959 224.602 275.255 257.5 275.255C288.5 275.255 308.548 314.122 321 324.255Z" fill="#F4F4F4"/>
<path d="M288.453 274.642C281.152 290.233 271.5 305.753 254.414 310.753C237.594 304.086 229.76 291.308 219 274.642C228.844 260.753 240.618 250.753 254.414 250.753C268.209 250.753 276.969 257.975 288.453 274.642Z" fill="#FF9C50"/>
<path d="M289 274.118C281.344 281.308 269.859 288.53 254.946 292.975C233.766 284.086 229.595 284.04 219 274.118C226.946 261.955 241.363 250.753 254.946 250.753C268.529 250.753 282.568 262.595 289 274.118Z" fill="#FFC14D"/>
<path d="M360.365 202.792C360.365 202.792 370.437 194.8 372.78 196.211C375.122 197.621 358.023 213.368 358.023 213.368C348.84 200.694 342.669 197.484 329.447 200.206C312.825 205.988 309.2 212.804 303.447 227C301.604 209.778 304.95 202.276 323.123 191.98C343.521 187.21 350.65 191.153 360.365 202.792Z" fill="black" stroke="black"/>
<path d="M146.415 210.47C146.415 210.47 126.922 191.905 130.42 192.414C133.919 192.922 143.416 199.28 143.416 199.28C155.636 186.983 168.987 183.204 184.481 188.035C193.978 190.324 206.266 210.155 204.895 227C197.147 194.702 162.159 186.389 146.415 210.47Z" fill="black" stroke="black"/>
<g filter="url(#filter0_f_69_60)">
<ellipse cx="372.522" cy="265.005" rx="25.5" ry="16.5" transform="rotate(-25.0415 372.522 265.005)" fill="#FDCBCB"/>
</g>
<g filter="url(#filter1_f_69_60)">
<ellipse cx="152.235" cy="262.396" rx="25.5" ry="16.5" transform="rotate(27.4449 152.235 262.396)" fill="#FDCBCB"/>
</g>
<defs>
<filter id="filter0_f_69_60" x="336.08" y="234.265" width="72.8839" height="61.4794" filterUnits="userSpaceOnUse" color-interpolation-filters="sRGB">
<feFlood flood-opacity="0" result="BackgroundImageFix"/>
<feBlend mode="normal" in="SourceGraphic" in2="BackgroundImageFix" result="shape"/>
<feGaussianBlur stdDeviation="6.15" result="effect1_foregroundBlur_69_60"/>
</filter>
<filter id="filter1_f_69_60" x="116.055" y="231.319" width="72.3604" height="62.154" filterUnits="userSpaceOnUse" color-interpolation-filters="sRGB">
<feFlood flood-opacity="0" result="BackgroundImageFix"/>
<feBlend mode="normal" in="SourceGraphic" in2="BackgroundImageFix" result="shape"/>
<feGaussianBlur stdDeviation="6.15" result="effect1_foregroundBlur_69_60"/>
</filter>
</defs>
</svg>
