<svg width="580" height="757" viewBox="0 0 580 757" fill="none" xmlns="http://www.w3.org/2000/svg">
<path d="M486.326 559.27C490.418 648.501 442.518 700.183 295.958 700.183C127.893 700.183 90.5649 656.577 90.5649 559.27C108.325 471.32 199.061 346.286 295.958 351.331C368.728 355.12 470.841 484.128 486.326 559.27Z" fill="#F2F1F1"/>
<path d="M424.802 439.895C427.832 445.462 396.787 478 288.24 478C163.764 478 142 445.966 142 439.895C155.154 434.408 216.474 455.92 288.24 456.235C342.136 456.472 413.333 435.207 424.802 439.895Z" fill="#E8E4E4"/>
<path d="M536.864 281.683C542 392.183 481.864 456.183 297.864 456.183C86.8636 456.183 40 402.183 40 281.683C62.2968 172.771 176.213 17.9359 297.864 24.1833C389.223 28.8751 517.423 188.632 536.864 281.683Z" fill="#F2F1F1"/>
<ellipse cx="502.475" cy="488.767" rx="67.5" ry="39.025" transform="rotate(-23.5784 502.475 488.767)" fill="black"/>
<path d="M474.614 48.9024C501.752 73.7014 503.366 116.114 478.218 143.634C453.07 171.153 458.565 131.235 431.427 106.436C404.289 81.6369 354.795 81.3481 379.943 53.8285C405.091 26.3089 447.477 24.1034 474.614 48.9024Z" fill="black"/>
<path d="M98.16 43.9122C126.026 19.9346 168.328 23.4047 192.642 51.663C216.957 79.9212 177.982 69.6924 150.116 93.67C122.25 117.648 116.044 166.752 91.7296 138.494C67.4147 110.235 70.2937 67.8898 98.16 43.9122Z" fill="black"/>
<ellipse cx="175.631" cy="686.844" rx="50.5184" ry="45.2985" transform="rotate(-30.992 175.631 686.844)" fill="black"/>
<ellipse cx="393.838" cy="689.28" rx="50.5184" ry="45.2985" transform="rotate(40.6648 393.838 689.28)" fill="black"/>
<path d="M240.957 276.882C215.372 306.665 172.184 285.249 154.527 270.08C136.87 254.912 126.915 236.283 152.5 206.5C178.085 176.717 233.431 146.705 251.088 161.874C268.746 177.042 266.543 247.1 240.957 276.882Z" fill="black"/>
<path d="M429.251 205.231C449.616 238.8 415.847 273.202 395.945 285.275C376.043 297.349 355.243 301.027 334.878 267.458C314.514 233.888 303.173 171.959 323.075 159.885C342.977 147.812 408.886 171.661 429.251 205.231Z" fill="black"/>
<ellipse cx="77.9628" cy="494.065" rx="67.5" ry="39.025" transform="rotate(30.7715 77.9628 494.065)" fill="black"/>
<ellipse cx="211.5" cy="239.5" rx="32.5" ry="33.5" fill="#F7F7F7"/>
<circle cx="211.5" cy="240.5" r="24.5" fill="black"/>
<circle cx="227.5" cy="224.5" r="8.5" fill="white"/>
<ellipse cx="369.5" cy="240.5" rx="32.5" ry="33.5" fill="#F7F7F7"/>
<circle cx="369.5" cy="241.5" r="24.5" fill="black"/>
<circle cx="385.5" cy="225.5" r="8.5" fill="white"/>
<path d="M294.534 415.979C264.498 416.008 263.773 378.209 263.773 378.209C286.241 339.212 305.11 342.439 326.269 378.039C326.269 378.039 324.57 415.949 294.534 415.979Z" fill="#840000"/>
<path d="M322 315.651C322 327.855 307.143 332 291.308 332C275.472 332 259 327.855 259 315.651C259 303.446 275.472 287 291.308 287C307.143 287 322 303.446 322 315.651Z" fill="black"/>
<path d="M291.15 323.146C300.596 342.941 291.756 366.86 271.406 376.571C251.056 386.282 226.902 378.108 217.456 358.313C208.01 338.519 238.241 377.73 265.705 364.624C293.17 351.518 281.704 303.352 291.15 323.146Z" fill="black"/>
<path d="M365.898 357.83C357.815 374.867 334.638 380.791 314.131 371.061C293.624 361.332 283.553 339.633 291.636 322.596C299.719 305.559 291.334 347.648 319.01 360.779C346.686 373.91 373.982 340.793 365.898 357.83Z" fill="black"/>
</svg>
