<svg width="640" height="773" viewBox="0 0 640 773" fill="none" xmlns="http://www.w3.org/2000/svg">
<path d="M517.706 593.772C521.797 683.004 473.897 734.685 327.338 734.685C159.272 734.685 121.944 691.079 121.944 593.772C139.704 505.822 230.441 380.788 327.338 385.833C400.107 389.622 502.221 518.63 517.706 593.772Z" fill="#FFC7C7"/>
<path d="M456.191 462.194C459.071 469.617 429.562 513 326.385 513C208.066 513 187.379 470.288 187.379 462.194C199.882 454.878 258.169 483.561 326.385 483.98C377.614 484.295 445.289 455.943 456.191 462.194Z" fill="#FCB7B7"/>
<path d="M550.379 316.185C555.516 426.685 465.879 490.685 329.243 490.685C192.607 490.685 86.3793 427.499 86.3793 316.185C108.676 207.273 207.593 96.252 329.243 102.499C420.603 107.191 530.939 223.134 550.379 316.185Z" fill="#FFC7C7"/>
<ellipse cx="533.854" cy="523.27" rx="67.5" ry="39.025" transform="rotate(-23.5784 533.854 523.27)" fill="#FFC7C7"/>
<path d="M74.316 86.2219C108.974 90.6936 196.526 98.1691 226.683 134.246C256.839 170.322 205.885 158.378 167.121 190.782C128.356 223.185 116.46 287.665 86.3033 251.589C56.1469 215.512 70.3906 114.08 74.316 86.2219Z" fill="#FFC7C7"/>
<path d="M85.2753 101.479C114.162 104.233 187.24 108.03 211.497 137.05C235.755 166.07 193.432 157.579 160.103 185.439C126.773 213.299 115.059 266.96 90.801 237.94C66.5434 208.92 81.2303 124.63 85.2753 101.479Z" fill="#FFB0B0"/>
<path d="M548.022 84.9564C551.577 119.72 564.277 206.668 536.034 244.262C507.79 281.855 507.792 229.52 467.398 199.172C427.004 168.824 361.51 171.956 389.754 134.362C417.997 96.7693 520.003 87.4916 548.022 84.9564Z" fill="#FFC7C7"/>
<path d="M535.668 99.1082C539.579 127.861 552.557 199.877 529.838 230.117C507.12 260.357 505.729 217.213 470.999 191.12C436.268 165.028 381.35 165.867 404.069 135.627C426.787 105.387 512.205 100.453 535.668 99.1082Z" fill="#FFB0B0"/>
<ellipse cx="207.011" cy="721.347" rx="50.5184" ry="45.2985" transform="rotate(-89.0136 207.011 721.347)" fill="#FFC7C7"/>
<ellipse cx="425.161" cy="721.291" rx="50.5184" ry="45.2985" transform="rotate(-89.0136 425.161 721.291)" fill="#FFC7C7"/>
<ellipse cx="109.342" cy="528.567" rx="67.5" ry="39.025" transform="rotate(30.7715 109.342 528.567)" fill="#FFC7C7"/>
<ellipse cx="242.879" cy="274.002" rx="32.5" ry="33.5" fill="#F7F7F7"/>
<circle cx="242.879" cy="275.002" r="24.5" fill="black"/>
<circle cx="258.879" cy="259.002" r="8.5" fill="white"/>
<ellipse cx="400.879" cy="275.002" rx="32.5" ry="33.5" fill="#F7F7F7"/>
<circle cx="400.879" cy="276.002" r="24.5" fill="black"/>
<circle cx="416.879" cy="260.002" r="8.5" fill="white"/>
<ellipse cx="331.879" cy="351.5" rx="58.5" ry="43.5" fill="#F89D9D"/>
<ellipse cx="306.379" cy="355.5" rx="14" ry="13.5" fill="#863A3A"/>
<ellipse cx="357.379" cy="355.5" rx="14" ry="13.5" fill="#863A3A"/>
<path d="M400.379 409.92C400.379 422.92 366.801 468.92 325.379 468.92C283.958 468.92 250.379 423.92 250.379 409.92C250.379 395.92 283.958 423.92 325.379 423.92C366.801 423.92 400.379 396.92 400.379 409.92Z" fill="#863A3A"/>
<path d="M358.879 458.5C350.379 463.5 343.053 468.5 325.379 468.5C307.706 468.5 302.879 466 291.879 458.5C291.879 450.216 312.379 430 325.379 442.5C340.879 429 363.098 454 358.879 458.5Z" fill="#F89D9D"/>
</svg>
