<svg xmlns="http://www.w3.org/2000/svg" fill="none" viewBox="0 19.450264800000003 391.1271347248576 346.96799999999996" style="max-height: 500px" width="391.1271347248576" height="346.96799999999996">
<path fill="#F2F1F1" d="M385.767 225.651C389.755 314.327 343.065 365.686 200.207 365.686C36.3851 365.686 0 322.352 0 225.651C17.3113 138.249 105.757 13.9946 200.207 19.0082C271.139 22.7733 370.673 150.977 385.767 225.651Z"/>
<path fill="black" d="M337.437 38.8452C358.507 58.7463 359.759 92.7822 340.235 114.867C320.71 136.951 324.976 104.917 303.906 85.0156C282.836 65.1145 244.408 64.8828 263.933 42.7984C283.458 20.714 316.367 18.9441 337.437 38.8452Z"/>
<path fill="black" d="M45.1557 34.8406C66.7912 15.5987 99.6341 18.3834 118.512 41.0605C137.39 63.7377 107.13 55.5291 85.4947 74.771C63.8591 94.013 59.0413 133.419 40.1631 110.742C21.2849 88.0646 23.5202 54.0825 45.1557 34.8406Z"/>
<path fill="black" d="M156.024 221.798C136.159 245.699 102.629 228.512 88.9195 216.34C75.2104 204.167 67.4809 189.217 87.3456 165.317C107.21 141.416 150.181 117.331 163.89 129.504C177.599 141.677 175.889 197.898 156.024 221.798Z"/>
<path fill="black" d="M302.217 164.298C318.028 191.237 291.81 218.844 276.358 228.533C260.905 238.222 244.757 241.174 228.945 214.235C213.134 187.296 204.329 137.597 219.781 127.908C235.233 118.219 286.405 137.359 302.217 164.298Z"/>
<path fill="#840000" d="M197.621 333.423C174.301 333.446 173.739 303.113 173.739 303.113C191.183 271.817 205.833 274.407 222.261 302.976C222.261 302.976 220.941 333.399 197.621 333.423Z"/>
<path fill="black" d="M218.946 252.91C218.946 262.704 207.411 266.03 195.117 266.03C182.822 266.03 170.033 262.704 170.033 252.91C170.033 243.116 182.822 229.917 195.117 229.917C207.411 229.917 218.946 243.116 218.946 252.91Z"/>
<path fill="black" d="M194.994 258.925C202.328 274.81 195.465 294.005 179.665 301.798C163.865 309.591 145.111 303.031 137.778 287.146C130.444 271.261 153.915 302.728 175.239 292.211C196.562 281.693 187.66 243.04 194.994 258.925Z"/>
<path fill="black" d="M253.029 286.759C246.753 300.431 228.759 305.184 212.837 297.376C196.915 289.569 189.096 272.155 195.371 258.483C201.647 244.811 195.137 278.587 216.625 289.125C238.113 299.662 259.305 273.086 253.029 286.759Z"/>
<ellipse fill="#F7F7F7" ry="26.8836" rx="25.2332" cy="192.198" cx="132.377"/>
<ellipse fill="black" ry="19.6611" rx="19.0219" cy="193" cx="132.377"/>
<ellipse fill="white" ry="6.82121" rx="6.59944" cy="180.16" cx="144.8"/>
<ellipse fill="#F7F7F7" ry="26.8836" rx="25.2332" cy="193" cx="255.049"/>
<ellipse fill="black" ry="19.6611" rx="19.0219" cy="193.803" cx="255.049"/>
<ellipse fill="white" ry="6.82121" rx="6.59944" cy="180.963" cx="267.472"/>
</svg>