<svg width="580" height="757" viewBox="0 0 580 757" fill="none" xmlns="http://www.w3.org/2000/svg">
<path d="M486.326 558.773C490.418 648.005 442.518 699.686 295.958 699.686C127.893 699.686 90.5651 656.08 90.5651 558.773C108.325 470.823 199.062 345.789 295.958 350.834C368.728 354.623 470.841 483.631 486.326 558.773Z" fill="#F2F1F1"/>
<path d="M424.802 439.398C427.832 444.965 396.787 477.503 288.24 477.503C163.764 477.503 142 445.469 142 439.398C155.154 433.911 216.474 455.423 288.24 455.738C342.136 455.974 413.333 434.71 424.802 439.398Z" fill="#E8E4E4"/>
<path d="M536.864 281.186C542 391.686 481.864 455.686 297.864 455.686C86.8636 455.686 40 401.686 40 281.186C62.2968 172.274 176.213 17.4389 297.864 23.6863C389.223 28.3781 517.423 188.135 536.864 281.186Z" fill="#F2F1F1"/>
<ellipse cx="502.475" cy="488.27" rx="67.5" ry="39.025" transform="rotate(-23.5784 502.475 488.27)" fill="black"/>
<path d="M474.614 48.4056C501.752 73.2046 503.366 115.617 478.218 143.137C453.07 170.656 458.565 130.738 431.427 105.939C404.289 81.1401 354.795 80.8513 379.943 53.3317C405.091 25.812 447.477 23.6066 474.614 48.4056Z" fill="black"/>
<path d="M98.16 43.4154C126.026 19.4378 168.328 22.9079 192.642 51.1661C216.957 79.4244 177.982 69.1956 150.116 93.1732C122.25 117.151 116.044 166.255 91.7296 137.997C67.4147 109.739 70.2937 67.393 98.16 43.4154Z" fill="black"/>
<ellipse cx="175.631" cy="686.347" rx="50.5184" ry="45.2985" transform="rotate(-30.992 175.631 686.347)" fill="black"/>
<ellipse cx="393.838" cy="688.783" rx="50.5184" ry="45.2985" transform="rotate(40.6648 393.838 688.783)" fill="black"/>
<path d="M240.957 276.386C215.372 306.168 172.184 284.752 154.527 269.584C136.87 254.415 126.915 235.786 152.5 206.003C178.085 176.22 233.431 146.208 251.088 161.377C268.746 176.546 266.543 246.603 240.957 276.386Z" fill="black"/>
<path d="M429.251 204.734C449.616 238.303 415.847 272.705 395.945 284.778C376.043 296.852 355.243 300.53 334.878 266.96C314.514 233.391 303.173 171.462 323.075 159.388C342.977 147.314 408.886 171.164 429.251 204.734Z" fill="black"/>
<ellipse cx="77.9628" cy="493.568" rx="67.5" ry="39.025" transform="rotate(30.7715 77.9628 493.568)" fill="black"/>
<ellipse cx="211.5" cy="239.003" rx="32.5" ry="33.5" fill="#F7F7F7"/>
<circle cx="211.5" cy="240.003" r="24.5" fill="black"/>
<circle cx="227.5" cy="224.003" r="8.5" fill="white"/>
<ellipse cx="369.5" cy="240.003" rx="32.5" ry="33.5" fill="#F7F7F7"/>
<circle cx="369.5" cy="241.003" r="24.5" fill="black"/>
<circle cx="385.5" cy="225.003" r="8.5" fill="white"/>
<path d="M322 315.154C322 327.358 307.143 331.503 291.308 331.503C275.472 331.503 259 327.358 259 315.154C259 302.949 275.472 286.503 291.308 286.503C307.143 286.503 322 302.949 322 315.154Z" fill="black"/>
<path d="M291.15 322.649C300.596 342.444 291.756 366.363 271.406 376.074C251.056 385.785 226.902 377.611 217.456 357.816C208.01 338.022 238.241 377.233 265.705 364.127C293.17 351.021 281.704 302.855 291.15 322.649Z" fill="black"/>
<path d="M365.898 357.333C357.815 374.37 334.638 380.294 314.131 370.565C293.624 360.835 283.553 339.136 291.636 322.099C299.719 305.062 291.334 347.151 319.01 360.282C346.686 373.413 373.982 340.296 365.898 357.333Z" fill="black"/>
</svg>
