<svg width="393" height="389" viewBox="0 0 393 389" fill="none" xmlns="http://www.w3.org/2000/svg">
<path d="M392.5 199.753C397.636 310.253 343.379 388.438 206.743 388.438C70.1065 388.438 0 325.252 0 213.938C22.2968 105.026 85.0927 -5.99546 206.743 0.251921C298.103 4.94372 373.059 106.701 392.5 199.753Z" fill="#222430"/>
<path d="M203 234.254C203 309.641 197.893 370.755 133 370.755C68.1066 370.755 3.00005 319.754 20.5 234.254C35.4415 161.254 88.5001 97.7542 133 97.7542C197.893 97.7542 202.987 240.472 203 234.254Z" fill="#F4F4F4"/>
<path d="M379 234.254C391 322.754 338 362.255 274 370.755C209.107 370.755 203 309.641 203 234.254C203 158.868 220.607 97.7542 285.5 97.7542C320 97.7542 367 145.754 379 234.254Z" fill="#F4F4F4"/>
<path d="M266.5 324.255C339 383.253 243 383.253 203 383.253C138.107 383.253 56.0001 370.755 149.5 310.755C170.998 296.959 170.102 275.255 203 275.255C234 275.255 254.048 314.122 266.5 324.255Z" fill="#F4F4F4"/>
<path d="M233.953 274.642C226.652 290.233 217 305.753 199.914 310.753C183.094 304.086 175.26 291.308 164.5 274.642C174.344 260.753 186.118 250.753 199.914 250.753C213.709 250.753 222.469 257.975 233.953 274.642Z" fill="#FF9C50"/>
<path d="M234.5 274.118C226.844 281.308 215.359 288.53 200.446 292.975C179.266 284.086 175.095 284.04 164.5 274.118C172.446 261.955 186.863 250.753 200.446 250.753C214.029 250.753 228.068 262.595 234.5 274.118Z" fill="#FFC14D"/>
<path d="M305.865 202.792C305.865 202.792 315.937 194.8 318.28 196.211C320.622 197.621 303.523 213.368 303.523 213.368C294.34 200.694 288.169 197.484 274.947 200.206C258.325 205.988 254.7 212.804 248.948 227C247.104 209.778 250.451 202.276 268.623 191.98C289.022 187.21 296.15 191.153 305.865 202.792Z" fill="black" stroke="black"/>
<path d="M91.9148 210.47C91.9148 210.47 72.4215 191.905 75.9203 192.414C79.4191 192.922 88.9158 199.28 88.9158 199.28C101.136 186.983 114.487 183.204 129.981 188.035C139.478 190.324 151.766 210.155 150.395 227C142.647 194.702 107.659 186.389 91.9148 210.47Z" fill="black" stroke="black"/>
<g filter="url(#filter0_f_71_33)">
<ellipse cx="318.022" cy="265.005" rx="25.5" ry="16.5" transform="rotate(-25.0415 318.022 265.005)" fill="#FDCBCB"/>
</g>
<g filter="url(#filter1_f_71_33)">
<ellipse cx="97.735" cy="262.396" rx="25.5" ry="16.5" transform="rotate(27.4449 97.735 262.396)" fill="#FDCBCB"/>
</g>
<defs>
<filter id="filter0_f_71_33" x="281.58" y="234.265" width="72.8839" height="61.4794" filterUnits="userSpaceOnUse" color-interpolation-filters="sRGB">
<feFlood flood-opacity="0" result="BackgroundImageFix"/>
<feBlend mode="normal" in="SourceGraphic" in2="BackgroundImageFix" result="shape"/>
<feGaussianBlur stdDeviation="6.15" result="effect1_foregroundBlur_71_33"/>
</filter>
<filter id="filter1_f_71_33" x="61.5547" y="231.319" width="72.3605" height="62.154" filterUnits="userSpaceOnUse" color-interpolation-filters="sRGB">
<feFlood flood-opacity="0" result="BackgroundImageFix"/>
<feBlend mode="normal" in="SourceGraphic" in2="BackgroundImageFix" result="shape"/>
<feGaussianBlur stdDeviation="6.15" result="effect1_foregroundBlur_71_33"/>
</filter>
</defs>
</svg>
