<svg width="514" height="723" viewBox="0 0 514 723" fill="none" xmlns="http://www.w3.org/2000/svg">
<path d="M177.242 644.896C186.727 641.714 192.129 653.12 197.69 669.695C203.25 686.271 206.862 701.741 197.377 704.922C187.891 708.104 175.694 697.246 170.134 680.671C164.574 664.095 167.756 648.078 177.242 644.896Z" fill="#FFA35D"/>
<path d="M182.557 649.339C185.946 658.446 175.411 670.773 159.026 676.872C142.641 682.97 126.61 680.531 123.22 671.423C119.83 662.315 131.487 655.437 147.872 649.339C164.257 643.24 179.167 640.231 182.557 649.339Z" fill="#FFA35D"/>
<ellipse cx="167.209" cy="674.396" rx="31.6566" ry="17.5961" transform="rotate(-59.1575 167.209 674.396)" fill="#FFA35D"/>
<path d="M353.078 636.883C356.169 627.367 368.548 629.817 385.177 635.217C401.805 640.618 416.386 646.924 413.295 656.44C410.205 665.955 394.22 669.292 377.591 663.891C360.963 658.491 349.988 646.399 353.078 636.883Z" fill="#FFA35D"/>
<path d="M359.812 635.257C369.147 637.956 372.78 653.759 367.926 670.555C363.071 687.351 351.568 698.779 342.232 696.081C332.896 693.383 334.309 679.922 339.163 663.126C344.018 646.33 350.476 632.559 359.812 635.257Z" fill="#FFA35D"/>
<ellipse cx="370.809" cy="662.506" rx="31.6566" ry="17.5961" transform="rotate(-112.622 370.809 662.506)" fill="#FFA35D"/>
<path d="M419.297 518C423.388 607.232 386.635 678.778 268.635 678.778C150.635 678.778 97.6347 615.307 97.6347 518C115.395 430.05 171.738 310.733 268.635 315.778C341.404 319.567 403.812 442.858 419.297 518Z" fill="#222430"/>
<path d="M377.79 559.5C380.636 619.7 355.065 667.968 272.97 667.968C190.874 667.968 154 625.148 154 559.5C166.356 500.165 205.556 450.065 272.97 453.468C323.597 456.024 367.016 508.806 377.79 559.5Z" fill="#F4F4F4"/>
<path d="M353.869 371.712C355.871 376.137 335.358 402 263.632 402C181.381 402 167 376.537 167 371.712C175.692 367.35 216.211 384.45 263.632 384.7C299.245 384.888 346.291 367.985 353.869 371.712Z" fill="#1C1D28"/>
<path d="M447 200C452.136 310.5 397.879 388.685 261.243 388.685C124.606 388.685 54.4999 325.499 54.4999 214.185C76.7967 105.273 139.593 -5.74815 261.243 0.499236C352.602 5.19104 427.559 106.948 447 200Z" fill="#222430"/>
<path d="M498.219 405.608C506.84 425.362 486.131 453.464 451.964 468.376C417.797 483.287 383.111 479.362 374.489 459.609C365.868 439.855 395.333 436.751 429.5 421.839C463.667 406.927 489.598 385.855 498.219 405.608Z" fill="#222430"/>
<path d="M130.021 466.212C116.628 483.099 82.0928 478.008 52.8852 454.842C23.6775 431.677 10.8575 399.208 24.2507 382.322C37.644 365.435 54.2187 389.993 83.4263 413.159C112.634 436.325 143.414 449.326 130.021 466.212Z" fill="#222430"/>
<path d="M257.5 234.502C257.5 309.889 252.393 371.002 187.5 371.002C122.606 371.002 57.5 320.002 75 234.502C89.9414 161.502 143 98.0015 187.5 98.0015C252.393 98.0015 257.487 240.719 257.5 234.502Z" fill="#F4F4F4"/>
<path d="M433.5 234.502C445.5 323.002 392.5 362.502 328.5 371.002C263.606 371.002 257.5 309.889 257.5 234.502C257.5 159.115 275.106 98.0015 340 98.0015C374.5 98.0015 421.5 146.002 433.5 234.502Z" fill="#F4F4F4"/>
<path d="M321 324.502C393.5 383.5 297.5 383.5 257.5 383.5C192.607 383.5 110.5 371.002 204 311.002C225.498 297.206 224.602 275.502 257.5 275.502C288.5 275.502 308.548 314.369 321 324.502Z" fill="#F4F4F4"/>
<ellipse cx="193" cy="213" rx="26" ry="38" fill="black"/>
<ellipse cx="203.5" cy="192" rx="5.5" ry="6" fill="white"/>
<ellipse cx="191.5" cy="212.5" rx="6.5" ry="7.5" fill="white"/>
<ellipse cx="328" cy="213" rx="26" ry="38" fill="black"/>
<ellipse cx="338.5" cy="192" rx="5.5" ry="6" fill="white"/>
<ellipse cx="326.5" cy="212.5" rx="6.5" ry="7.5" fill="white"/>
<path d="M288.453 274.889C281.152 290.48 271.5 306 254.414 311C237.594 304.333 229.76 291.556 219 274.889C228.844 261 240.618 251 254.414 251C268.209 251 276.969 258.222 288.453 274.889Z" fill="#FF9C50"/>
<path d="M289 274.365C281.344 281.556 269.859 288.778 254.946 293.222C233.766 284.333 229.595 284.287 219 274.365C226.946 262.203 241.363 251 254.946 251C268.529 251 282.568 262.843 289 274.365Z" fill="#FFC14D"/>
</svg>
