<svg width="640" height="778" viewBox="0 0 640 778" fill="none" xmlns="http://www.w3.org/2000/svg">
<path d="M517.706 593.723C521.797 682.948 473.897 734.625 327.338 734.625C159.272 734.625 121.944 691.022 121.944 593.723C139.704 505.781 230.441 380.757 327.338 385.802C400.107 389.59 502.221 518.587 517.706 593.723Z" fill="#FFC7C7"/>
<path d="M456.191 462.156C459.071 469.578 429.562 512.958 326.384 512.958C208.066 512.958 187.379 470.25 187.379 462.156C199.882 454.84 258.169 483.521 326.384 483.94C377.614 484.255 445.289 455.905 456.191 462.156Z" fill="#FCB7B7"/>
<path d="M550.379 316.159C555.516 426.65 465.879 490.645 329.243 490.645C192.607 490.645 86.3793 427.464 86.3793 316.159C108.676 207.256 207.593 96.244 329.243 102.491C420.603 107.182 530.939 223.115 550.379 316.159Z" fill="#FFC7C7"/>
<ellipse cx="67.4992" cy="39.0224" rx="67.4992" ry="39.0224" transform="matrix(0.916525 -0.399976 0.400032 0.916501 456.379 514.46)" fill="#FFC7C7"/>
<path d="M74.3159 86.2145C108.974 90.6858 196.526 98.1608 226.683 134.235C256.839 170.308 205.885 158.365 167.121 190.766C128.356 223.167 116.46 287.642 86.3033 251.568C56.1468 215.494 70.3905 114.071 74.3159 86.2145Z" fill="#FFC7C7"/>
<path d="M85.2752 101.47C114.162 104.224 187.24 108.021 211.497 137.039C235.755 166.056 193.432 157.566 160.103 185.423C126.773 213.281 115.059 266.938 90.801 237.92C66.5433 208.903 81.2303 124.62 85.2752 101.47Z" fill="#FFB0B0"/>
<path d="M548.022 84.9494C551.577 119.711 564.278 206.652 536.034 244.242C507.791 281.832 507.793 229.501 467.398 199.156C427.004 168.81 361.51 171.942 389.754 134.351C417.997 96.7613 520.003 87.4844 548.022 84.9494Z" fill="#FFC7C7"/>
<path d="M535.669 99.1001C539.579 127.851 552.558 199.861 529.839 230.098C507.12 260.336 505.729 217.195 470.999 191.105C436.268 165.014 381.35 165.853 404.069 135.616C426.788 105.379 512.205 100.445 535.669 99.1001Z" fill="#FFB0B0"/>
<ellipse cx="50.5167" cy="45.2965" rx="50.5167" ry="45.2965" transform="matrix(-0.0224881 0.999747 -0.999745 -0.0225698 471.638 674.241)" fill="#FFC7C7"/>
<ellipse cx="50.5167" cy="45.2965" rx="50.5167" ry="45.2965" transform="matrix(-0.0224881 0.999747 -0.999745 -0.0225698 272.842 676.045)" fill="#FFC7C7"/>
<ellipse cx="67.4986" cy="39.0227" rx="67.4986" ry="39.0227" transform="matrix(0.859233 0.511584 -0.511647 0.859196 71.3109 460.464)" fill="#FFC7C7"/>
<ellipse cx="242.879" cy="273.98" rx="32.5" ry="33.4974" fill="#F7F7F7"/>
<ellipse cx="242.879" cy="274.98" rx="24.5" ry="24.4981" fill="black"/>
<ellipse cx="258.879" cy="258.981" rx="8.5" ry="8.49933" fill="white"/>
<ellipse cx="400.879" cy="274.98" rx="32.5" ry="33.4974" fill="#F7F7F7"/>
<ellipse cx="400.879" cy="275.98" rx="24.5" ry="24.4981" fill="black"/>
<ellipse cx="416.879" cy="259.981" rx="8.5" ry="8.49933" fill="white"/>
<ellipse cx="331.879" cy="351.471" rx="58.5" ry="43.4966" fill="#F89D9D"/>
<ellipse cx="306.379" cy="355.47" rx="14" ry="13.4989" fill="#863A3A"/>
<ellipse cx="357.379" cy="355.47" rx="14" ry="13.4989" fill="#863A3A"/>
<line y1="-2.5" x2="109.49" y2="-2.5" transform="matrix(0.986396 0.164386 -0.164412 0.986392 249 417.965)" stroke="#863A3A" stroke-width="5"/>
</svg>
