<svg xml:space="preserve" viewBox="327.39336000000003 344.67336 436.32000000000005 388.8" version="1.1" xmlns:xlink="http://www.w3.org/1999/xlink" xmlns="http://www.w3.org/2000/svg" style="max-height: 500px" width="436.32000000000005" height="388.8">
<desc>Created with Fabric.js 5.2.4</desc>
<defs>
</defs>
<rect fill="transparent" height="100%" width="100%" y="0" x="0"/>
<g id="b23108de-9cf0-440a-bdca-a90ec4ab5469" transform="matrix(1 0 0 1 540 540)">
<rect height="1080" width="1080" ry="0" rx="0" y="-540" x="-540" style="stroke: none; stroke-width: 1; stroke-dasharray: none; stroke-linecap: butt; stroke-dashoffset: 0; stroke-linejoin: miter; stroke-miterlimit: 4; fill: rgb(255,255,255); fill-rule: nonzero; opacity: 1; visibility: hidden;"/>
</g>
<g id="00726bac-a747-4a71-908a-6f7c6b1af005" transform="matrix(1 0 0 1 540 540)">
</g>
<g transform="matrix(1 0 0 1 540 540)">
<g style="">
		<g transform="matrix(1 0 0 1 6.53 7.75)">
<path stroke-linecap="round" d="M 463.65 283.322 C 467.977 382.337 392.466 439.686 277.361 439.686 C 162.255 439.686 72.7676 383.067 72.7676 283.322 C 91.5508 185.73 174.88 86.248 277.361 91.8461 C 354.324 96.0503 447.273 199.942 463.65 283.322 Z" transform="translate(-268.3, -265.65)" style="stroke: none; stroke-width: 1; stroke-dasharray: none; stroke-linecap: butt; stroke-dashoffset: 0; stroke-linejoin: miter; stroke-miterlimit: 4; fill: rgb(255,199,199); fill-rule: nonzero; opacity: 1;"/>
</g>
		<g transform="matrix(1 0 0 1 -134 -101.78)">
<path stroke-linecap="round" d="M 62.6052 77.2602 C 91.8017 81.2671 165.557 87.9656 190.962 120.293 C 216.366 152.62 173.442 141.917 140.786 170.952 C 108.13 199.988 98.1079 257.766 72.7035 225.439 C 47.2992 193.112 59.2984 102.223 62.6052 77.2602 Z" transform="translate(-127.77, -156.12)" style="stroke: none; stroke-width: 1; stroke-dasharray: none; stroke-linecap: butt; stroke-dashoffset: 0; stroke-linejoin: miter; stroke-miterlimit: 4; fill: rgb(255,199,199); fill-rule: nonzero; opacity: 1;"/>
</g>
		<g transform="matrix(1 0 0 1 -137.16 -102.09)">
<path stroke-linecap="round" d="M 71.8376 90.9315 C 96.1724 93.3994 157.734 96.8017 178.169 122.805 C 198.605 148.809 162.951 141.2 134.874 166.165 C 106.796 191.129 96.9276 239.213 76.4926 213.209 C 56.0575 187.206 68.43 111.676 71.8376 90.9315 Z" transform="translate(-124.61, -155.82)" style="stroke: none; stroke-width: 1; stroke-dasharray: none; stroke-linecap: butt; stroke-dashoffset: 0; stroke-linejoin: miter; stroke-miterlimit: 4; fill: rgb(255,176,176); fill-rule: nonzero; opacity: 1;"/>
</g>
		<g transform="matrix(1 0 0 1 132.84 -104.54)">
<path stroke-linecap="round" d="M 461.664 76.1263 C 464.659 107.277 475.358 185.188 451.565 218.874 C 427.772 252.56 427.774 205.664 393.745 178.471 C 359.716 151.277 304.543 154.083 328.336 120.397 C 352.129 86.7114 438.06 78.398 461.664 76.1263 Z" transform="translate(-394.61, -153.36)" style="stroke: none; stroke-width: 1; stroke-dasharray: none; stroke-linecap: butt; stroke-dashoffset: 0; stroke-linejoin: miter; stroke-miterlimit: 4; fill: rgb(255,199,199); fill-rule: nonzero; opacity: 1;"/>
</g>
		<g transform="matrix(1 0 0 1 134.86 -105.77)">
<path stroke-linecap="round" d="M 451.257 88.8073 C 454.551 114.572 465.485 179.103 446.346 206.2 C 427.207 233.296 426.036 194.637 396.778 171.256 C 367.521 147.875 321.256 148.627 340.395 121.531 C 359.534 94.434 431.491 90.0122 451.257 88.8073 Z" transform="translate(-396.62, -152.14)" style="stroke: none; stroke-width: 1; stroke-dasharray: none; stroke-linecap: butt; stroke-dashoffset: 0; stroke-linejoin: miter; stroke-miterlimit: 4; fill: rgb(255,176,176); fill-rule: nonzero; opacity: 1;"/>
</g>
		<g transform="matrix(1 0 0 1 -57.16 -12.38)">
<ellipse ry="30.0181" rx="27.3786" cy="0" cx="0" style="stroke: none; stroke-width: 1; stroke-dasharray: none; stroke-linecap: butt; stroke-dashoffset: 0; stroke-linejoin: miter; stroke-miterlimit: 4; fill: rgb(247,247,247); fill-rule: nonzero; opacity: 1;"/>
</g>
		<g transform="matrix(1 0 0 1 -57.16 -11.49)">
<ellipse ry="21.9536" rx="20.6393" cy="0" cx="0" style="stroke: none; stroke-width: 1; stroke-dasharray: none; stroke-linecap: butt; stroke-dashoffset: 0; stroke-linejoin: miter; stroke-miterlimit: 4; fill: rgb(0,0,0); fill-rule: nonzero; opacity: 1;"/>
</g>
		<g transform="matrix(1 0 0 1 -43.68 -25.82)">
<ellipse ry="7.61654" rx="7.16056" cy="0" cx="0" style="stroke: none; stroke-width: 1; stroke-dasharray: none; stroke-linecap: butt; stroke-dashoffset: 0; stroke-linejoin: miter; stroke-miterlimit: 4; fill: rgb(255,255,255); fill-rule: nonzero; opacity: 1;"/>
</g>
		<g transform="matrix(1 0 0 1 75.94 -11.49)">
<ellipse ry="30.0181" rx="27.3786" cy="0" cx="0" style="stroke: none; stroke-width: 1; stroke-dasharray: none; stroke-linecap: butt; stroke-dashoffset: 0; stroke-linejoin: miter; stroke-miterlimit: 4; fill: rgb(247,247,247); fill-rule: nonzero; opacity: 1;"/>
</g>
		<g transform="matrix(1 0 0 1 75.94 -10.59)">
<ellipse ry="21.9536" rx="20.6393" cy="0" cx="0" style="stroke: none; stroke-width: 1; stroke-dasharray: none; stroke-linecap: butt; stroke-dashoffset: 0; stroke-linejoin: miter; stroke-miterlimit: 4; fill: rgb(0,0,0); fill-rule: nonzero; opacity: 1;"/>
</g>
		<g transform="matrix(1 0 0 1 89.42 -24.93)">
<ellipse ry="7.61654" rx="7.16056" cy="0" cx="0" style="stroke: none; stroke-width: 1; stroke-dasharray: none; stroke-linecap: butt; stroke-dashoffset: 0; stroke-linejoin: miter; stroke-miterlimit: 4; fill: rgb(255,255,255); fill-rule: nonzero; opacity: 1;"/>
</g>
		<g transform="matrix(1 0 0 1 17.81 57.06)">
<ellipse ry="38.9788" rx="49.2815" cy="0" cx="0" style="stroke: none; stroke-width: 1; stroke-dasharray: none; stroke-linecap: butt; stroke-dashoffset: 0; stroke-linejoin: miter; stroke-miterlimit: 4; fill: rgb(248,157,157); fill-rule: nonzero; opacity: 1;"/>
</g>
		<g transform="matrix(1 0 0 1 -3.67 60.64)">
<ellipse ry="12.0969" rx="11.7939" cy="0" cx="0" style="stroke: none; stroke-width: 1; stroke-dasharray: none; stroke-linecap: butt; stroke-dashoffset: 0; stroke-linejoin: miter; stroke-miterlimit: 4; fill: rgb(134,58,58); fill-rule: nonzero; opacity: 1;"/>
</g>
		<g transform="matrix(1 0 0 1 39.29 60.64)">
<ellipse ry="12.0969" rx="11.7939" cy="0" cx="0" style="stroke: none; stroke-width: 1; stroke-dasharray: none; stroke-linecap: butt; stroke-dashoffset: 0; stroke-linejoin: miter; stroke-miterlimit: 4; fill: rgb(134,58,58); fill-rule: nonzero; opacity: 1;"/>
</g>
		<g transform="matrix(1 0 0 1 12.34 134.09)">
<path stroke-linecap="round" d="M 337.287 367.314 C 337.287 378.963 309 420.182 274.106 420.182 C 239.212 420.182 210.924 379.859 210.924 367.314 C 210.924 354.769 239.212 379.859 274.106 379.859 C 309 379.859 337.287 355.666 337.287 367.314 Z" transform="translate(-274.11, -391.99)" style="stroke: none; stroke-width: 1; stroke-dasharray: none; stroke-linecap: butt; stroke-dashoffset: 0; stroke-linejoin: miter; stroke-miterlimit: 4; fill: rgb(134,58,58); fill-rule: nonzero; opacity: 1;"/>
</g>
		<g transform="matrix(1 0 0 1 12.56 148.47)">
<path stroke-linecap="round" d="M 302.327 410.845 C 295.166 415.326 288.994 419.806 274.106 419.806 C 259.218 419.806 255.151 417.566 245.885 410.845 C 245.885 403.422 263.154 385.307 274.106 396.508 C 287.163 384.411 305.881 406.813 302.327 410.845 Z" transform="translate(-274.33, -406.37)" style="stroke: none; stroke-width: 1; stroke-dasharray: none; stroke-linecap: butt; stroke-dashoffset: 0; stroke-linejoin: miter; stroke-miterlimit: 4; fill: rgb(248,157,157); fill-rule: nonzero; opacity: 1;"/>
</g>
</g>
</g>
</svg>