<svg width="514" height="723" viewBox="0 0 514 723" fill="none" xmlns="http://www.w3.org/2000/svg">
<path d="M177.242 644.649C186.727 641.467 192.129 652.872 197.69 669.448C203.25 686.024 206.862 701.493 197.377 704.675C187.891 707.857 175.694 696.999 170.134 680.423C164.574 663.848 167.756 647.831 177.242 644.649Z" fill="#FFA35D"/>
<path d="M182.557 649.091C185.946 658.199 175.411 670.526 159.026 676.624C142.641 682.723 126.61 680.283 123.22 671.176C119.83 662.068 131.487 655.19 147.872 649.091C164.257 642.993 179.167 639.984 182.557 649.091Z" fill="#FFA35D"/>
<ellipse cx="167.209" cy="674.149" rx="31.6566" ry="17.5961" transform="rotate(-59.1575 167.209 674.149)" fill="#FFA35D"/>
<path d="M353.078 636.636C356.169 627.12 368.549 629.569 385.177 634.97C401.806 640.37 416.386 646.677 413.295 656.192C410.205 665.708 394.22 669.044 377.591 663.644C360.963 658.243 349.988 646.152 353.078 636.636Z" fill="#FFA35D"/>
<path d="M359.812 635.01C369.147 637.708 372.78 653.512 367.926 670.308C363.071 687.104 351.568 698.532 342.232 695.834C332.896 693.135 334.309 679.675 339.163 662.879C344.018 646.083 350.476 632.312 359.812 635.01Z" fill="#FFA35D"/>
<ellipse cx="370.809" cy="662.259" rx="31.6566" ry="17.5961" transform="rotate(-112.622 370.809 662.259)" fill="#FFA35D"/>
<path d="M419.297 517.753C423.388 606.984 386.635 678.531 268.635 678.531C150.635 678.531 97.6348 615.06 97.6348 517.753C115.395 429.803 171.738 310.486 268.635 315.531C341.404 319.32 403.812 442.611 419.297 517.753Z" fill="#222430"/>
<path d="M377.79 559.253C380.636 619.453 355.065 667.721 272.97 667.721C190.874 667.721 154 624.901 154 559.253C166.356 499.918 205.556 449.818 272.97 453.221C323.597 455.777 367.016 508.559 377.79 559.253Z" fill="#F4F4F4"/>
<path d="M353.869 371.464C355.871 375.89 335.358 401.753 263.632 401.753C181.381 401.753 167 376.29 167 371.464C175.692 367.103 216.211 384.202 263.632 384.452C299.245 384.64 346.291 367.738 353.869 371.464Z" fill="#1C1D28"/>
<path d="M447 199.753C452.136 310.253 397.879 388.438 261.243 388.438C124.606 388.438 54.4999 325.252 54.4999 213.938C76.7967 105.026 139.593 -5.99546 261.243 0.251921C352.602 4.94373 427.559 106.701 447 199.753Z" fill="#222430"/>
<path d="M498.219 405.361C506.84 425.115 486.131 453.216 451.964 468.128C417.797 483.04 383.111 479.115 374.489 459.362C365.868 439.608 395.333 436.504 429.5 421.592C463.667 406.68 489.598 385.607 498.219 405.361Z" fill="#222430"/>
<path d="M130.021 465.965C116.628 482.851 82.0928 477.761 52.8852 454.595C23.6775 431.429 10.8575 398.961 24.2507 382.074C37.644 365.188 54.2187 389.746 83.4263 412.912C112.634 436.077 143.414 449.079 130.021 465.965Z" fill="#222430"/>
<circle cx="174.879" cy="172.755" r="24.5" fill="black"/>
<circle cx="190.879" cy="156.755" r="8.5" fill="white"/>
<circle cx="332.879" cy="173.755" r="24.5" fill="black"/>
<circle cx="348.879" cy="157.755" r="8.5" fill="white"/>
<path d="M257.5 234.254C257.5 309.641 252.393 370.755 187.5 370.755C122.606 370.755 57.5 319.754 75 234.254C89.9414 161.254 143 97.7542 187.5 97.7542C252.393 97.7542 257.487 240.472 257.5 234.254Z" fill="#F4F4F4"/>
<path d="M433.5 234.254C445.5 322.754 392.5 362.255 328.5 370.755C263.606 370.755 257.5 309.641 257.5 234.254C257.5 158.868 275.106 97.7542 340 97.7542C374.5 97.7542 421.5 145.754 433.5 234.254Z" fill="#F4F4F4"/>
<path d="M321 324.255C393.5 383.253 297.5 383.253 257.5 383.253C192.607 383.253 110.5 370.755 204 310.755C225.498 296.959 224.602 275.255 257.5 275.255C288.5 275.255 308.548 314.122 321 324.255Z" fill="#F4F4F4"/>
<path d="M219 212.753C219 233.74 207.359 250.753 193 250.753C178.641 250.753 167 233.74 167 212.753C167 187.5 178.641 198.5 193 198.5C207.359 198.5 219 188 219 212.753Z" fill="black"/>
<ellipse cx="206" cy="207" rx="8" ry="11" fill="white"/>
<ellipse cx="188" cy="228.5" rx="5" ry="5.5" fill="white"/>
<path d="M221 189.553C221 195.352 204.031 200.053 190.5 200.053C176.969 200.053 162 195.352 162 189.553C162 183.754 171.5 196.182 190.5 194.553C208 196.901 221 183.754 221 189.553Z" fill="black"/>
<path d="M355 212.753C355 233.74 343.359 250.753 329 250.753C314.641 250.753 303 233.74 303 212.753C303 187.5 314.641 198.5 329 198.5C343.359 198.5 355 188 355 212.753Z" fill="black"/>
<ellipse cx="316" cy="207" rx="8" ry="11" fill="white"/>
<ellipse cx="334" cy="228.5" rx="5" ry="5.5" fill="white"/>
<path d="M357 189.553C357 195.352 340.031 200.053 326.5 200.053C312.969 200.053 298 195.352 298 189.553C298 183.754 307.5 196.182 326.5 194.553C344 196.901 357 183.754 357 189.553Z" fill="black"/>
<path d="M288 270.907C280.746 283.9 271.157 296.833 254.183 301C237.472 295.444 229.69 284.796 219 270.907C228.78 259.333 240.477 251 254.183 251C267.888 251 276.591 257.019 288 270.907Z" fill="#FF9C50"/>
<path d="M368 276.257C368 282.743 361.508 288 353.5 288C345.492 288 339 282.743 339 276.257C339 269.772 345.492 251 353.5 251C361.508 251 368 269.772 368 276.257Z" fill="#AAD0EE"/>
<path d="M287.5 269.346C290.93 277.232 272.237 269.346 253.296 269.346C234.355 269.346 219.5 279.387 219.5 271.5C223.787 264.928 234.005 252.258 253.296 247C268.301 251.601 284.07 261.459 287.5 269.346Z" fill="#FFC14D"/>
</svg>
