<svg width="508" height="181" viewBox="0 0 508 181" fill="none" xmlns="http://www.w3.org/2000/svg">
<g filter="url(#filter0_di_59_361)">
<mask id="path-1-outside-1_59_361" maskUnits="userSpaceOnUse" x="422.206" y="67.618" width="74.6562" height="74.2575" fill="black">
<rect fill="white" x="422.206" y="67.618" width="74.6562" height="74.2575"/>
<path d="M465.139 135.508C454.829 136.951 446.032 135.471 438.748 131.066C431.549 126.65 427.497 119.814 426.592 110.557C425.613 100.535 428.137 92.1754 434.164 85.4775C440.268 78.6828 448.559 74.552 459.038 73.0851C468.926 71.701 476.326 72.473 481.238 75.4012C486.226 78.2326 489.019 82.7058 489.617 88.8206C489.733 90.0096 489.676 91.1798 489.446 92.3312C489.3 93.4708 488.943 94.6399 488.375 95.8386C487.883 96.9406 487.133 98.0356 486.126 99.1236C485.195 100.115 484.091 101.087 482.813 102.041C481.528 102.91 479.976 103.686 478.158 104.371C476.332 104.971 474.363 105.419 472.25 105.715L454.389 108.344C455.499 110.944 457.232 112.897 459.587 114.203C461.934 115.424 464.797 115.798 468.178 115.324C471.812 114.816 475.484 113.828 479.196 112.362C480.76 111.712 482.426 110.79 484.194 109.596C486.047 108.389 487.395 107.727 488.24 107.609C489.677 107.408 490.817 107.679 491.661 108.421C492.589 109.152 493.115 110.155 493.24 111.429C493.389 112.958 492.896 114.921 491.759 117.318C490.615 119.631 488.925 122.062 486.69 124.614C484.531 127.068 481.54 129.338 477.718 131.422C473.895 133.507 469.702 134.869 465.139 135.508ZM452.958 100.28C458.781 99.3787 461.946 98.8927 462.453 98.8217C463.721 98.6442 464.575 97.7497 465.018 96.1382C465.332 94.975 465.394 93.4167 465.203 91.4633C464.68 86.1128 462.813 83.6623 459.602 84.1119C458.419 84.2775 457.298 85.0801 456.239 86.5196C455.265 87.9474 454.472 89.9094 453.859 92.4057C453.238 94.8171 452.938 97.4418 452.958 100.28Z"/>
</mask>
<path d="M465.139 135.508C454.829 136.951 446.032 135.471 438.748 131.066C431.549 126.65 427.497 119.814 426.592 110.557C425.613 100.535 428.137 92.1754 434.164 85.4775C440.268 78.6828 448.559 74.552 459.038 73.0851C468.926 71.701 476.326 72.473 481.238 75.4012C486.226 78.2326 489.019 82.7058 489.617 88.8206C489.733 90.0096 489.676 91.1798 489.446 92.3312C489.3 93.4708 488.943 94.6399 488.375 95.8386C487.883 96.9406 487.133 98.0356 486.126 99.1236C485.195 100.115 484.091 101.087 482.813 102.041C481.528 102.91 479.976 103.686 478.158 104.371C476.332 104.971 474.363 105.419 472.25 105.715L454.389 108.344C455.499 110.944 457.232 112.897 459.587 114.203C461.934 115.424 464.797 115.798 468.178 115.324C471.812 114.816 475.484 113.828 479.196 112.362C480.76 111.712 482.426 110.79 484.194 109.596C486.047 108.389 487.395 107.727 488.24 107.609C489.677 107.408 490.817 107.679 491.661 108.421C492.589 109.152 493.115 110.155 493.24 111.429C493.389 112.958 492.896 114.921 491.759 117.318C490.615 119.631 488.925 122.062 486.69 124.614C484.531 127.068 481.54 129.338 477.718 131.422C473.895 133.507 469.702 134.869 465.139 135.508ZM452.958 100.28C458.781 99.3787 461.946 98.8927 462.453 98.8217C463.721 98.6442 464.575 97.7497 465.018 96.1382C465.332 94.975 465.394 93.4167 465.203 91.4633C464.68 86.1128 462.813 83.6623 459.602 84.1119C458.419 84.2775 457.298 85.0801 456.239 86.5196C455.265 87.9474 454.472 89.9094 453.859 92.4057C453.238 94.8171 452.938 97.4418 452.958 100.28Z" fill="#E0AAAA"/>
<path d="M438.748 131.066L438.207 131.931L438.212 131.934L438.748 131.066ZM434.164 85.4775L434.888 86.1366L434.889 86.1359L434.164 85.4775ZM481.238 75.4012L480.706 76.2719C480.712 76.2753 480.718 76.2787 480.724 76.282L481.238 75.4012ZM489.446 92.3312L488.471 92.171C488.466 92.1948 488.462 92.2186 488.459 92.2425L489.446 92.3312ZM488.375 95.8386L487.481 95.4351C487.477 95.4423 487.474 95.4496 487.471 95.4569L488.375 95.8386ZM486.126 99.1236L486.835 99.7994L486.84 99.7938L486.126 99.1236ZM482.813 102.041L483.343 102.869C483.357 102.86 483.37 102.85 483.384 102.84L482.813 102.041ZM478.158 104.371L478.431 105.326C478.445 105.321 478.459 105.316 478.472 105.311L478.158 104.371ZM472.25 105.715L472.153 104.72L472.146 104.721L472.25 105.715ZM454.389 108.344L454.284 107.35C453.971 107.396 453.691 107.589 453.531 107.87C453.371 108.15 453.349 108.486 453.472 108.774L454.389 108.344ZM459.587 114.203L459.081 115.088C459.089 115.092 459.096 115.096 459.103 115.1L459.587 114.203ZM479.196 112.362L479.526 113.295C479.531 113.293 479.537 113.291 479.542 113.289L479.196 112.362ZM484.194 109.596L483.679 108.758C483.674 108.761 483.669 108.764 483.664 108.768L484.194 109.596ZM491.661 108.421L490.99 109.19C491.003 109.202 491.016 109.213 491.029 109.223L491.661 108.421ZM491.759 117.318L492.646 117.738C492.648 117.732 492.651 117.727 492.654 117.722L491.759 117.318ZM486.69 124.614L487.422 125.264L487.423 125.262L486.69 124.614ZM477.718 131.422L478.163 132.302L477.718 131.422ZM452.958 100.28L451.963 100.328C451.965 100.612 452.087 100.878 452.298 101.058C452.509 101.238 452.789 101.316 453.07 101.273L452.958 100.28ZM465.018 96.1382L465.976 96.3697L465.977 96.3661L465.018 96.1382ZM456.239 86.5196L455.449 85.9419C455.441 85.952 455.434 85.9622 455.427 85.9726L456.239 86.5196ZM453.859 92.4057L454.822 92.6214L454.824 92.6099L453.859 92.4057ZM465.042 134.512C454.908 135.931 446.345 134.468 439.284 130.199L438.212 131.934C445.719 136.473 454.749 137.971 465.236 136.503L465.042 134.512ZM439.29 130.202C432.367 125.955 428.46 119.4 427.583 110.418L425.602 110.695C426.534 120.228 430.731 127.346 438.207 131.931L439.29 130.202ZM427.583 110.418C426.627 100.639 429.087 92.5832 434.888 86.1366L433.44 84.8184C427.187 91.7675 424.599 100.431 425.602 110.695L427.583 110.418ZM434.889 86.1359C440.798 79.5573 448.85 75.5202 459.135 74.0804L458.941 72.0898C448.268 73.5839 439.737 77.8083 433.439 84.8191L434.889 86.1359ZM459.135 74.0804C468.944 72.7073 476.074 73.5103 480.706 76.2719L481.769 74.5305C476.577 71.4357 468.907 70.6947 458.941 72.0898L459.135 74.0804ZM480.724 76.282C485.428 78.952 488.058 83.1405 488.626 88.9593L490.607 88.682C489.98 82.2711 487.024 77.5132 481.752 74.5204L480.724 76.282ZM488.626 88.9593C488.733 90.052 488.68 91.1214 488.471 92.171L490.421 92.4914C490.671 91.2383 490.733 89.9673 490.607 88.682L488.626 88.9593ZM488.459 92.2425C488.329 93.2591 488.008 94.3221 487.481 95.4351L489.269 96.2422C489.878 94.9578 490.271 93.6825 490.433 92.4199L488.459 92.2425ZM487.471 95.4569C487.035 96.4323 486.358 97.432 485.412 98.4534L486.84 99.7938C487.909 98.6392 488.731 97.4489 489.279 96.2204L487.471 95.4569ZM485.417 98.4478C484.535 99.3867 483.479 100.319 482.243 101.241L483.384 102.84C484.702 101.856 485.855 100.843 486.835 99.7994L485.417 98.4478ZM482.283 101.213C481.08 102.026 479.604 102.768 477.844 103.432L478.472 105.311C480.347 104.605 481.975 103.793 483.343 102.869L482.283 101.213ZM477.885 103.417C476.123 103.996 474.213 104.431 472.153 104.72L472.347 106.71C474.513 106.407 476.541 105.947 478.431 105.326L477.885 103.417ZM472.146 104.721L454.284 107.35L454.493 109.339L472.354 106.709L472.146 104.721ZM453.472 108.774C454.663 111.559 456.535 113.676 459.081 115.088L460.093 113.317C457.929 112.117 456.336 110.329 455.305 107.915L453.472 108.774ZM459.103 115.1C461.669 116.435 464.747 116.814 468.275 116.32L468.08 114.329C464.848 114.782 462.199 114.413 460.071 113.305L459.103 115.1ZM468.275 116.32C471.994 115.799 475.745 114.789 479.526 113.295L478.866 111.428C475.224 112.867 471.629 113.832 468.08 114.329L468.275 116.32ZM479.542 113.289C481.184 112.607 482.912 111.648 484.724 110.424L483.664 108.768C481.941 109.932 480.336 110.817 478.85 111.434L479.542 113.289ZM484.709 110.434C485.615 109.844 486.377 109.401 487 109.095C487.638 108.782 488.072 108.641 488.338 108.604L488.143 106.614C487.563 106.695 486.901 106.945 486.19 107.294C485.465 107.65 484.626 108.141 483.679 108.758L484.709 110.434ZM488.338 108.604C489.573 108.431 490.407 108.677 490.99 109.19L492.332 107.653C491.228 106.68 489.781 106.384 488.143 106.614L488.338 108.604ZM491.029 109.223C491.74 109.783 492.149 110.54 492.249 111.567L494.23 111.29C494.081 109.77 493.438 108.522 492.292 107.62L491.029 109.223ZM492.249 111.567C492.372 112.824 491.97 114.582 490.865 116.914L492.654 117.722C493.821 115.259 494.406 113.091 494.23 111.29L492.249 111.567ZM490.873 116.898C489.779 119.107 488.148 121.463 485.956 123.965L487.423 125.262C489.701 122.662 491.45 120.154 492.646 117.738L490.873 116.898ZM485.958 123.964C483.903 126.299 481.022 128.498 477.273 130.543L478.163 132.302C482.059 130.177 485.159 127.837 487.422 125.264L485.958 123.964ZM477.273 130.543C473.567 132.564 469.493 133.889 465.042 134.512L465.236 136.503C469.912 135.848 474.224 134.45 478.163 132.302L477.273 130.543ZM453.07 101.273C458.899 100.371 462.053 99.8866 462.55 99.8169L462.356 97.8264C461.839 97.8987 458.663 98.3866 452.846 99.2868L453.07 101.273ZM462.55 99.8169C463.399 99.6981 464.148 99.3276 464.747 98.7002C465.332 98.0883 465.724 97.286 465.976 96.3697L464.059 95.9067C463.869 96.6019 463.613 97.0526 463.342 97.3352C463.087 97.6023 462.775 97.7678 462.356 97.8264L462.55 99.8169ZM465.977 96.3661C466.338 95.0297 466.39 93.3312 466.194 91.3247L464.213 91.602C464.399 93.5022 464.326 94.9203 464.058 95.9103L465.977 96.3661ZM466.194 91.3247C465.926 88.5819 465.302 86.4156 464.208 84.9798C463.058 83.4702 461.443 82.8452 459.505 83.1166L459.699 85.1071C460.972 84.929 461.896 85.3045 462.613 86.2453C463.386 87.2601 463.958 88.9943 464.213 91.602L466.194 91.3247ZM459.505 83.1166C457.94 83.3356 456.596 84.3814 455.449 85.9419L457.03 87.0974C457.999 85.7787 458.897 85.2194 459.699 85.1071L459.505 83.1166ZM455.427 85.9726C454.355 87.5433 453.523 89.638 452.894 92.2015L454.824 92.6099C455.421 90.1807 456.175 88.3514 457.051 87.0667L455.427 85.9726ZM452.897 92.19C452.25 94.6998 451.942 97.4143 451.963 100.328L453.953 100.232C453.933 97.4693 454.226 94.9343 454.821 92.6213L452.897 92.19Z" fill="#824F4F" mask="url(#path-1-outside-1_59_361)"/>
</g>
<g filter="url(#filter1_di_59_361)">
<mask id="path-3-outside-2_59_361" maskUnits="userSpaceOnUse" x="266.64" y="67.6822" width="79.2061" height="74.1743" fill="black">
<rect fill="white" x="266.64" y="67.6822" width="79.2061" height="74.1743"/>
<path d="M313.43 104.011C313.034 99.591 312.137 95.7946 310.739 92.6214C309.333 89.3632 307.573 87.87 305.457 88.142C304.018 88.327 302.825 89.3401 301.877 91.1813C300.929 93.0226 300.312 95.2083 300.026 97.7383C299.739 100.268 299.721 102.936 299.973 105.74C300.362 110.075 301.298 113.823 302.78 116.986C304.255 120.063 306.093 121.46 308.293 121.178C310.494 120.895 311.999 119.068 312.81 115.697C313.62 112.326 313.827 108.43 313.43 104.011ZM309.62 135.966C303.019 136.815 296.945 136.392 291.399 134.698C285.938 132.992 281.386 129.967 277.743 125.62C274.184 121.263 272.119 115.898 271.547 109.523C270.677 99.8343 273.288 91.7183 279.378 85.1753C285.469 78.6322 293.677 74.697 304.003 73.3698C314.328 72.0425 323.005 73.8072 330.033 78.6639C337.062 83.5207 341.01 90.7936 341.88 100.483C342.742 110.087 340.077 118.081 333.887 124.465C327.781 130.838 319.692 134.672 309.62 135.966Z"/>
</mask>
<path d="M313.43 104.011C313.034 99.591 312.137 95.7946 310.739 92.6214C309.333 89.3632 307.573 87.87 305.457 88.142C304.018 88.327 302.825 89.3401 301.877 91.1813C300.929 93.0226 300.312 95.2083 300.026 97.7383C299.739 100.268 299.721 102.936 299.973 105.74C300.362 110.075 301.298 113.823 302.78 116.986C304.255 120.063 306.093 121.46 308.293 121.178C310.494 120.895 311.999 119.068 312.81 115.697C313.62 112.326 313.827 108.43 313.43 104.011ZM309.62 135.966C303.019 136.815 296.945 136.392 291.399 134.698C285.938 132.992 281.386 129.967 277.743 125.62C274.184 121.263 272.119 115.898 271.547 109.523C270.677 99.8343 273.288 91.7183 279.378 85.1753C285.469 78.6322 293.677 74.697 304.003 73.3698C314.328 72.0425 323.005 73.8072 330.033 78.6639C337.062 83.5207 341.01 90.7936 341.88 100.483C342.742 110.087 340.077 118.081 333.887 124.465C327.781 130.838 319.692 134.672 309.62 135.966Z" fill="#E0AAAA"/>
<path d="M310.739 92.6214L309.823 93.0505L309.826 93.0573L310.739 92.6214ZM300.026 97.7383L301.015 97.8152L301.015 97.8152L300.026 97.7383ZM302.78 116.986L301.877 117.442L301.88 117.45L302.78 116.986ZM312.81 115.697L311.842 115.495L311.842 115.495L312.81 115.697ZM291.399 134.698L291.073 135.658L291.078 135.659L291.399 134.698ZM277.743 125.62L276.964 126.276L276.972 126.285L277.743 125.62ZM279.378 85.1753L280.092 85.8477L280.092 85.8477L279.378 85.1753ZM333.887 124.465L333.188 123.777L333.183 123.781L333.887 124.465ZM314.422 103.883C314.018 99.3835 313.102 95.4778 311.652 92.1855L309.826 93.0573C311.171 96.1115 312.049 99.7986 312.439 104.138L314.422 103.883ZM311.655 92.1923C310.212 88.847 308.173 86.7854 305.368 87.146L305.546 89.138C306.973 88.9546 308.455 89.8793 309.823 93.0505L311.655 92.1923ZM305.368 87.146C303.468 87.3902 302.033 88.7328 300.997 90.7454L302.757 91.6172C303.617 89.9473 304.568 89.2637 305.546 89.138L305.368 87.146ZM300.997 90.7454C299.979 92.7229 299.334 95.0357 299.036 97.6613L301.015 97.8152C301.291 95.3808 301.88 93.3224 302.757 91.6172L300.997 90.7454ZM299.036 97.6613C298.741 100.267 298.724 103.003 298.981 105.868L300.965 105.613C300.719 102.868 300.737 100.27 301.015 97.8152L299.036 97.6613ZM298.981 105.868C299.378 110.292 300.337 114.156 301.877 117.442L303.684 116.529C302.259 113.491 301.346 109.858 300.965 105.613L298.981 105.868ZM301.88 117.45C303.418 120.659 305.55 122.538 308.383 122.174L308.204 120.182C306.635 120.383 305.092 119.467 303.68 116.522L301.88 117.45ZM308.383 122.174C311.227 121.808 312.93 119.42 313.777 115.898L311.842 115.495C311.068 118.715 309.761 119.982 308.204 120.182L308.383 122.174ZM313.777 115.898C314.62 112.392 314.826 108.382 314.422 103.883L312.439 104.138C312.828 108.479 312.62 112.259 311.842 115.495L313.777 115.898ZM309.531 134.97C303.05 135.803 297.118 135.385 291.72 133.736L291.078 135.659C296.772 137.399 302.988 137.826 309.71 136.962L309.531 134.97ZM291.726 133.737C286.438 132.086 282.039 129.162 278.513 124.956L276.972 126.285C280.733 130.771 285.439 133.899 291.073 135.658L291.726 133.737ZM278.521 124.965C275.098 120.774 273.095 115.599 272.538 109.396L270.555 109.651C271.142 116.197 273.27 121.753 276.964 126.276L278.521 124.965ZM272.538 109.396C271.692 99.9618 274.228 92.1481 280.092 85.8477L278.664 84.5028C272.348 91.2885 269.662 99.7069 270.555 109.651L272.538 109.396ZM280.092 85.8477C285.987 79.515 293.957 75.6685 304.092 74.3658L303.913 72.3738C293.397 73.7256 284.951 77.7494 278.664 84.5028L280.092 85.8477ZM304.092 74.3658C314.228 73.0629 322.653 74.802 329.45 79.499L330.617 77.8289C323.358 72.8124 314.429 71.022 303.913 72.3738L304.092 74.3658ZM329.45 79.499C336.216 84.1744 340.041 91.1715 340.888 100.61L342.872 100.355C341.98 90.4156 337.908 82.8669 330.617 77.8289L329.45 79.499ZM340.888 100.61C341.726 109.952 339.142 117.636 333.188 123.777L334.586 125.153C341.013 118.526 343.757 110.222 342.872 100.355L340.888 100.61ZM333.183 123.781C327.27 129.953 319.413 133.7 309.531 134.97L309.71 136.962C319.972 135.643 328.292 131.722 334.591 125.148L333.183 123.781Z" fill="#824F4F" mask="url(#path-3-outside-2_59_361)"/>
</g>
<g filter="url(#filter2_di_59_361)">
<mask id="path-5-outside-3_59_361" maskUnits="userSpaceOnUse" x="329.263" y="86.0436" width="108.995" height="71.6868" fill="black">
<rect fill="white" x="329.263" y="86.0436" width="108.995" height="71.6868"/>
<path d="M407.632 120.843C407.877 116.07 406.084 113.544 402.255 113.262C400.553 113.137 399.226 114.023 398.274 115.921C397.323 117.818 396.77 120.258 396.617 123.241C396.385 127.758 396.108 131.501 395.785 134.471C395.546 137.448 395.153 140.114 394.605 142.469C394.057 144.823 393.451 146.661 392.785 147.981C392.119 149.3 391.252 150.391 390.182 151.254C389.117 152.031 387.938 152.543 386.644 152.79C385.354 152.952 383.73 152.961 381.773 152.817C378.794 152.598 376.391 151.994 374.562 151.004C372.819 150.02 371.604 148.733 370.916 147.143C370.229 145.553 369.945 143.607 370.063 141.306L371.25 118.168C371.495 113.396 369.703 110.869 365.873 110.588C364.341 110.475 363.019 111.276 361.906 112.991C360.882 114.626 360.298 116.85 360.154 119.662L359.242 137.431C358.979 142.544 357.732 146.045 355.499 147.934C353.271 149.738 349.476 150.443 344.115 150.049C339.094 149.68 335.706 148.276 333.952 145.837C332.287 143.32 331.592 139.376 331.868 134.007L333.482 102.561C333.705 98.2145 335.033 94.8049 337.466 92.3319C339.985 89.8652 343.202 88.7758 347.116 89.0636C354.095 89.5765 358.404 92.1602 360.045 96.8145C363.401 94.6661 366.635 93.2357 369.747 92.5235C372.944 91.8175 376.628 91.6178 380.798 91.9244C387.095 92.3873 391.509 95.4491 394.037 101.11C394.48 100.8 394.923 100.49 395.366 100.181C402.164 95.8901 410.329 94.0951 419.86 94.7958C425.903 95.2399 430.125 97.86 432.527 102.656C434.929 107.452 435.852 115.261 435.297 126.084C435.065 130.601 434.787 134.344 434.464 137.315C434.226 140.291 433.833 142.957 433.285 145.312C432.737 147.667 432.088 149.501 431.337 150.814C430.671 152.134 429.718 153.219 428.479 154.069C427.329 154.84 426.022 155.342 424.557 155.577C423.183 155.733 421.431 155.732 419.304 155.576C416.07 155.338 413.454 154.718 411.455 153.716C409.541 152.72 408.198 151.423 407.426 149.827C406.654 148.23 406.326 146.281 406.444 143.98L407.632 120.843Z"/>
</mask>
<path d="M407.632 120.843C407.877 116.07 406.084 113.544 402.255 113.262C400.553 113.137 399.226 114.023 398.274 115.921C397.323 117.818 396.77 120.258 396.617 123.241C396.385 127.758 396.108 131.501 395.785 134.471C395.546 137.448 395.153 140.114 394.605 142.469C394.057 144.823 393.451 146.661 392.785 147.981C392.119 149.3 391.252 150.391 390.182 151.254C389.117 152.031 387.938 152.543 386.644 152.79C385.354 152.952 383.73 152.961 381.773 152.817C378.794 152.598 376.391 151.994 374.562 151.004C372.819 150.02 371.604 148.733 370.916 147.143C370.229 145.553 369.945 143.607 370.063 141.306L371.25 118.168C371.495 113.396 369.703 110.869 365.873 110.588C364.341 110.475 363.019 111.276 361.906 112.991C360.882 114.626 360.298 116.85 360.154 119.662L359.242 137.431C358.979 142.544 357.732 146.045 355.499 147.934C353.271 149.738 349.476 150.443 344.115 150.049C339.094 149.68 335.706 148.276 333.952 145.837C332.287 143.32 331.592 139.376 331.868 134.007L333.482 102.561C333.705 98.2145 335.033 94.8049 337.466 92.3319C339.985 89.8652 343.202 88.7758 347.116 89.0636C354.095 89.5765 358.404 92.1602 360.045 96.8145C363.401 94.6661 366.635 93.2357 369.747 92.5235C372.944 91.8175 376.628 91.6178 380.798 91.9244C387.095 92.3873 391.509 95.4491 394.037 101.11C394.48 100.8 394.923 100.49 395.366 100.181C402.164 95.8901 410.329 94.0951 419.86 94.7958C425.903 95.2399 430.125 97.86 432.527 102.656C434.929 107.452 435.852 115.261 435.297 126.084C435.065 130.601 434.787 134.344 434.464 137.315C434.226 140.291 433.833 142.957 433.285 145.312C432.737 147.667 432.088 149.501 431.337 150.814C430.671 152.134 429.718 153.219 428.479 154.069C427.329 154.84 426.022 155.342 424.557 155.577C423.183 155.733 421.431 155.732 419.304 155.576C416.07 155.338 413.454 154.718 411.455 153.716C409.541 152.72 408.198 151.423 407.426 149.827C406.654 148.23 406.326 146.281 406.444 143.98L407.632 120.843Z" fill="#E0AAAA"/>
<path d="M395.785 134.471L394.792 134.341C394.791 134.351 394.79 134.36 394.789 134.37L395.785 134.471ZM394.605 142.469L393.633 142.221L393.633 142.221L394.605 142.469ZM392.785 147.981L393.678 148.448L393.678 148.448L392.785 147.981ZM390.182 151.254L390.781 152.068C390.794 152.059 390.806 152.049 390.818 152.039L390.182 151.254ZM386.644 152.79L386.789 153.784C386.81 153.781 386.831 153.778 386.851 153.774L386.644 152.79ZM374.562 151.004L374.087 151.874C374.092 151.877 374.098 151.88 374.103 151.883L374.562 151.004ZM370.916 147.143L371.831 146.762L371.831 146.762L370.916 147.143ZM361.906 112.991L361.065 112.431C361.062 112.436 361.059 112.44 361.056 112.445L361.906 112.991ZM355.499 147.934L356.137 148.719C356.142 148.715 356.148 148.71 356.153 148.706L355.499 147.934ZM333.952 145.837L333.123 146.378C333.131 146.389 333.138 146.4 333.146 146.411L333.952 145.837ZM337.466 92.3319L336.761 91.6081C336.756 91.6123 336.752 91.6165 336.748 91.6207L337.466 92.3319ZM360.045 96.8145L359.104 97.1297C359.207 97.4218 359.437 97.6532 359.728 97.7571C360.019 97.861 360.339 97.826 360.595 97.662L360.045 96.8145ZM369.747 92.5235L369.512 91.5453L369.505 91.547L369.747 92.5235ZM394.037 101.11L393.127 101.502C393.251 101.778 393.49 101.987 393.779 102.071C394.068 102.155 394.377 102.105 394.62 101.935L394.037 101.11ZM395.366 100.181L394.821 99.33C394.808 99.3381 394.795 99.3465 394.783 99.3552L395.366 100.181ZM432.527 102.656L431.637 103.089L431.637 103.089L432.527 102.656ZM434.464 137.315L433.471 137.185C433.47 137.194 433.47 137.203 433.469 137.213L434.464 137.315ZM433.285 145.312L432.312 145.064L432.312 145.064L433.285 145.312ZM431.337 150.814L430.468 150.302C430.459 150.317 430.451 150.332 430.444 150.347L431.337 150.814ZM428.479 154.069L429.046 154.905L429.055 154.899L428.479 154.069ZM424.557 155.577L424.691 156.572C424.706 156.57 424.721 156.568 424.736 156.566L424.557 155.577ZM411.455 153.716L411.01 154.602C411.015 154.605 411.019 154.607 411.024 154.609L411.455 153.716ZM407.426 149.827L408.323 149.406L408.323 149.406L407.426 149.827ZM408.629 120.916C408.757 118.422 408.367 116.331 407.281 114.8C406.164 113.225 404.439 112.42 402.306 112.263L402.204 114.261C403.9 114.385 404.987 114.985 405.662 115.937C406.368 116.933 406.752 118.491 406.635 120.77L408.629 120.916ZM402.306 112.263C401.249 112.186 400.272 112.424 399.417 112.996C398.576 113.558 397.908 114.403 397.38 115.455L399.168 116.386C399.593 115.54 400.064 114.994 400.549 114.67C401.021 114.355 401.558 114.213 402.204 114.261L402.306 112.263ZM397.38 115.455C396.348 117.512 395.777 120.098 395.62 123.168L397.615 123.314C397.763 120.418 398.297 118.124 399.168 116.386L397.38 115.455ZM395.62 123.168C395.389 127.674 395.112 131.397 394.792 134.341L396.777 134.602C397.103 131.606 397.382 127.842 397.615 123.314L395.62 123.168ZM394.789 134.37C394.554 137.308 394.167 139.923 393.633 142.221L395.578 142.716C396.139 140.304 396.539 137.588 396.78 134.573L394.789 134.37ZM393.633 142.221C393.093 144.541 392.507 146.293 391.892 147.513L393.678 148.448C394.394 147.029 395.022 145.106 395.578 142.716L393.633 142.221ZM391.892 147.513C391.284 148.719 390.501 149.698 389.546 150.468L390.818 152.039C392.003 151.084 392.955 149.882 393.678 148.448L391.892 147.513ZM389.583 150.44C388.633 151.133 387.587 151.586 386.436 151.806L386.851 153.774C388.288 153.5 389.601 152.929 390.781 152.068L389.583 150.44ZM386.498 151.796C385.297 151.947 383.745 151.959 381.824 151.818L381.722 153.816C383.716 153.962 385.411 153.957 386.789 153.784L386.498 151.796ZM381.824 151.818C378.929 151.605 376.68 151.023 375.022 150.125L374.103 151.883C376.102 152.964 378.66 153.59 381.722 153.816L381.824 151.818ZM375.037 150.134C373.458 149.242 372.416 148.114 371.831 146.762L370.001 147.524C370.791 149.352 372.18 150.798 374.087 151.874L375.037 150.134ZM371.831 146.762C371.224 145.356 370.947 143.576 371.06 141.379L369.065 141.233C368.942 143.638 369.235 145.749 370.001 147.524L371.831 146.762ZM371.06 141.379L372.247 118.242L370.253 118.095L369.065 141.233L371.06 141.379ZM372.247 118.242C372.375 115.748 371.985 113.656 370.899 112.126C369.782 110.55 368.058 109.746 365.924 109.589L365.822 111.586C367.518 111.711 368.605 112.311 369.28 113.262C369.987 114.258 370.37 115.816 370.253 118.095L372.247 118.242ZM365.924 109.589C363.914 109.441 362.296 110.535 361.065 112.431L362.746 113.55C363.741 112.017 364.769 111.509 365.822 111.586L365.924 109.589ZM361.056 112.445C359.913 114.271 359.306 116.679 359.156 119.589L361.151 119.736C361.29 117.022 361.85 114.981 362.755 113.536L361.056 112.445ZM359.156 119.589L358.244 137.358L360.239 137.504L361.151 119.736L359.156 119.589ZM358.244 137.358C357.986 142.385 356.765 145.539 354.846 147.163L356.153 148.706C358.699 146.552 359.972 142.704 360.239 137.504L358.244 137.358ZM354.862 147.15C352.935 148.709 349.468 149.44 344.166 149.05L344.063 151.047C349.485 151.446 353.607 150.767 356.137 148.719L354.862 147.15ZM344.166 149.05C339.243 148.688 336.242 147.327 334.757 145.263L333.146 146.411C335.17 149.225 338.944 150.671 344.063 151.047L344.166 149.05ZM334.78 145.297C333.3 143.058 332.593 139.386 332.865 134.081L330.871 133.934C330.592 139.367 331.274 143.581 333.123 146.378L334.78 145.297ZM332.865 134.081L334.479 102.634L332.485 102.487L330.871 133.934L332.865 134.081ZM334.479 102.634C334.693 98.4687 335.957 95.3077 338.185 93.0431L336.748 91.6207C334.11 94.302 332.717 97.9603 332.485 102.487L334.479 102.634ZM338.172 93.0557C340.469 90.8059 343.401 89.7929 347.065 90.0622L347.168 88.0649C343.003 87.7587 339.501 88.9246 336.761 91.6081L338.172 93.0557ZM347.065 90.0622C353.844 90.5606 357.656 93.0223 359.104 97.1297L360.986 96.4994C359.152 91.2981 354.346 88.5925 347.168 88.0649L347.065 90.0622ZM360.595 97.662C363.88 95.5592 367.011 94.1817 369.99 93.5L369.505 91.547C366.26 92.2897 362.922 93.7729 359.494 95.9671L360.595 97.662ZM369.982 93.5017C373.064 92.8211 376.648 92.6218 380.746 92.923L380.849 90.9257C376.607 90.6139 372.824 90.814 369.512 91.5453L369.982 93.5017ZM380.746 92.923C383.749 93.1438 386.244 93.9785 388.275 95.3873C390.304 96.7951 391.927 98.8165 393.127 101.502L394.947 100.717C393.618 97.7422 391.771 95.4024 389.387 93.7484C387.004 92.0955 384.144 91.1679 380.849 90.9257L380.746 92.923ZM394.62 101.935C395.063 101.626 395.506 101.316 395.949 101.006L394.783 99.3552C394.34 99.6648 393.897 99.9744 393.454 100.284L394.62 101.935ZM395.911 101.032C402.503 96.8713 410.45 95.1065 419.809 95.7945L419.912 93.7971C410.208 93.0838 401.825 94.909 394.821 99.33L395.911 101.032ZM419.809 95.7945C425.554 96.2168 429.422 98.6679 431.637 103.089L433.417 102.222C430.828 97.0521 426.251 94.2631 419.912 93.7971L419.809 95.7945ZM431.637 103.089C433.913 107.634 434.854 115.216 434.3 126.011L436.294 126.158C436.851 115.307 435.945 107.27 433.417 102.222L431.637 103.089ZM434.3 126.011C434.068 130.517 433.792 134.24 433.471 137.185L435.457 137.445C435.783 134.449 436.062 130.685 436.294 126.158L434.3 126.011ZM433.469 137.213C433.234 140.151 432.847 142.767 432.312 145.064L434.258 145.56C434.819 143.147 435.218 140.431 435.46 137.417L433.469 137.213ZM432.312 145.064C431.775 147.374 431.152 149.105 430.468 150.302L432.206 151.327C433.023 149.897 433.699 147.96 434.258 145.56L432.312 145.064ZM430.444 150.347C429.853 151.518 429.011 152.479 427.903 153.238L429.055 154.899C430.426 153.959 431.489 152.751 432.23 151.282L430.444 150.347ZM427.911 153.233C426.886 153.92 425.713 154.374 424.379 154.588L424.736 156.566C426.331 156.31 427.772 155.759 429.046 154.905L427.911 153.233ZM424.424 154.582C423.134 154.728 421.45 154.731 419.355 154.577L419.253 156.574C421.413 156.733 423.232 156.737 424.691 156.572L424.424 154.582ZM419.355 154.577C416.197 154.345 413.724 153.744 411.886 152.822L411.024 154.609C413.183 155.692 415.943 156.331 419.253 156.574L419.355 154.577ZM411.899 152.829C410.138 151.912 408.979 150.762 408.323 149.406L406.529 150.248C407.418 152.084 408.944 153.527 411.01 154.602L411.899 152.829ZM408.323 149.406C407.645 148.004 407.33 146.236 407.442 144.054L405.447 143.907C405.323 146.327 405.662 148.456 406.529 150.248L408.323 149.406ZM407.442 144.054L408.629 120.916L406.635 120.77L405.447 143.907L407.442 144.054Z" fill="#824F4F" mask="url(#path-5-outside-3_59_361)"/>
</g>
<g filter="url(#filter3_di_59_361)">
<mask id="path-7-outside-4_59_361" maskUnits="userSpaceOnUse" x="211.784" y="91.2128" width="73.9906" height="73.0903" fill="black">
<rect fill="white" x="211.784" y="91.2128" width="73.9906" height="73.0903"/>
<path d="M255.486 111.085C255.652 109.129 254.633 108.017 252.431 107.75C250.821 107.554 249.306 108.272 247.883 109.903C246.461 111.534 245.296 113.669 244.387 116.308C243.486 118.861 242.913 121.583 242.668 124.474C242.307 128.726 243.285 132.324 245.603 135.268C248.006 138.223 251.409 139.969 255.814 140.504C260.134 141.029 263.905 140.971 267.126 140.332C268.425 140.146 270.004 139.694 271.862 138.975C273.805 138.266 275.158 137.958 275.921 138.05C277.106 138.194 278.063 138.525 278.789 139.043C279.515 139.561 279.98 140.133 280.184 140.759C280.472 141.395 280.588 142.054 280.53 142.734C280.429 143.924 279.883 145.318 278.891 146.916C277.985 148.524 276.605 150.16 274.752 151.825C272.899 153.49 270.761 154.991 268.336 156.328C266.004 157.591 263.143 158.532 259.752 159.151C256.362 159.77 252.846 159.858 249.203 159.416C238.699 158.139 230.297 154.283 223.996 147.848C217.702 141.328 214.974 133.136 215.811 123.273C216.345 116.981 218.335 111.682 221.781 107.376C225.319 102.995 229.9 99.9436 235.523 98.2216C241.154 96.4145 247.485 95.9381 254.516 96.7925C261.208 97.6056 266.646 99.0824 270.829 101.223C275.104 103.289 278.061 105.753 279.701 108.615C281.341 111.477 282.006 114.737 281.696 118.393C281.559 120.008 281.08 121.625 280.258 123.243C279.52 124.872 278.402 126.454 276.902 127.99C275.487 129.536 273.462 130.707 270.827 131.504C268.199 132.216 265.191 132.365 261.803 131.954C260.278 131.768 259.015 131.529 258.013 131.235C257.095 130.952 256.108 130.489 255.05 129.845C254.084 129.126 253.401 128.098 253 126.761C252.6 125.424 252.483 123.777 252.649 121.822C252.793 120.121 253.263 118.116 254.058 115.808C254.945 113.424 255.421 111.85 255.486 111.085Z"/>
</mask>
<path d="M255.486 111.085C255.652 109.129 254.633 108.017 252.431 107.75C250.821 107.554 249.306 108.272 247.883 109.903C246.461 111.534 245.296 113.669 244.387 116.308C243.486 118.861 242.913 121.583 242.668 124.474C242.307 128.726 243.285 132.324 245.603 135.268C248.006 138.223 251.409 139.969 255.814 140.504C260.134 141.029 263.905 140.971 267.126 140.332C268.425 140.146 270.004 139.694 271.862 138.975C273.805 138.266 275.158 137.958 275.921 138.05C277.106 138.194 278.063 138.525 278.789 139.043C279.515 139.561 279.98 140.133 280.184 140.759C280.472 141.395 280.588 142.054 280.53 142.734C280.429 143.924 279.883 145.318 278.891 146.916C277.985 148.524 276.605 150.16 274.752 151.825C272.899 153.49 270.761 154.991 268.336 156.328C266.004 157.591 263.143 158.532 259.752 159.151C256.362 159.77 252.846 159.858 249.203 159.416C238.699 158.139 230.297 154.283 223.996 147.848C217.702 141.328 214.974 133.136 215.811 123.273C216.345 116.981 218.335 111.682 221.781 107.376C225.319 102.995 229.9 99.9436 235.523 98.2216C241.154 96.4145 247.485 95.9381 254.516 96.7925C261.208 97.6056 266.646 99.0824 270.829 101.223C275.104 103.289 278.061 105.753 279.701 108.615C281.341 111.477 282.006 114.737 281.696 118.393C281.559 120.008 281.08 121.625 280.258 123.243C279.52 124.872 278.402 126.454 276.902 127.99C275.487 129.536 273.462 130.707 270.827 131.504C268.199 132.216 265.191 132.365 261.803 131.954C260.278 131.768 259.015 131.529 258.013 131.235C257.095 130.952 256.108 130.489 255.05 129.845C254.084 129.126 253.401 128.098 253 126.761C252.6 125.424 252.483 123.777 252.649 121.822C252.793 120.121 253.263 118.116 254.058 115.808C254.945 113.424 255.421 111.85 255.486 111.085Z" fill="#E0AAAA"/>
<path d="M247.883 109.903L247.125 109.226L247.125 109.226L247.883 109.903ZM244.387 116.308L245.328 116.673L245.33 116.666L244.387 116.308ZM245.603 135.268L244.831 135.875C244.834 135.879 244.838 135.883 244.841 135.888L245.603 135.268ZM267.126 140.332L266.952 139.338C266.934 139.341 266.917 139.344 266.9 139.347L267.126 140.332ZM271.862 138.975L271.494 138.029C271.488 138.032 271.482 138.034 271.477 138.036L271.862 138.975ZM278.789 139.043L279.345 138.231L279.345 138.231L278.789 139.043ZM280.184 140.759L279.238 141.041C279.25 141.077 279.264 141.113 279.28 141.149L280.184 140.759ZM278.891 146.916L278.041 146.362C278.034 146.374 278.027 146.385 278.021 146.397L278.891 146.916ZM274.752 151.825L275.43 152.584L275.43 152.584L274.752 151.825ZM268.336 156.328L268.832 157.216L268.838 157.213L268.336 156.328ZM259.752 159.151L259.541 158.163L259.541 158.163L259.752 159.151ZM223.996 147.848L223.294 148.535L223.299 148.54L223.996 147.848ZM221.781 107.376L220.999 106.726L220.997 106.729L221.781 107.376ZM235.523 98.2216L235.844 99.1829L235.856 99.1789L235.523 98.2216ZM270.829 101.223L270.403 102.115C270.41 102.118 270.417 102.122 270.424 102.125L270.829 101.223ZM279.701 108.615L280.56 108.137L280.56 108.137L279.701 108.615ZM280.258 123.243L279.367 122.761C279.361 122.774 279.355 122.787 279.349 122.8L280.258 123.243ZM276.902 127.99L276.18 127.273C276.173 127.281 276.166 127.288 276.159 127.296L276.902 127.99ZM270.827 131.504L271.118 132.474C271.127 132.472 271.136 132.469 271.144 132.466L270.827 131.504ZM258.013 131.235L257.752 132.194C257.757 132.196 257.761 132.197 257.766 132.199L258.013 131.235ZM255.05 129.845L254.476 130.645C254.502 130.664 254.529 130.682 254.557 130.699L255.05 129.845ZM253 126.761L252.047 127.019L252.047 127.019L253 126.761ZM254.058 115.808L253.124 115.426C253.121 115.434 253.118 115.441 253.115 115.449L254.058 115.808ZM256.478 111.205C256.577 110.04 256.332 108.953 255.567 108.118C254.824 107.306 253.742 106.902 252.515 106.753L252.346 108.746C253.322 108.865 253.851 109.15 254.125 109.45C254.379 109.727 254.56 110.174 254.493 110.964L256.478 111.205ZM252.515 106.753C250.478 106.506 248.674 107.449 247.125 109.226L248.642 110.58C249.937 109.095 251.165 108.602 252.346 108.746L252.515 106.753ZM247.125 109.226C245.603 110.972 244.383 113.224 243.445 115.949L245.33 116.666C246.209 114.114 247.32 112.097 248.642 110.58L247.125 109.226ZM243.447 115.942C242.517 118.579 241.927 121.384 241.675 124.354L243.66 124.595C243.899 121.783 244.456 119.143 245.328 116.673L243.447 115.942ZM241.675 124.354C241.296 128.82 242.324 132.689 244.831 135.875L246.375 134.662C244.247 131.958 243.318 128.632 243.66 124.595L241.675 124.354ZM244.841 135.888C247.445 139.091 251.114 140.939 255.73 141.5L255.899 139.507C251.704 138.998 248.566 137.356 246.365 134.649L244.841 135.888ZM255.73 141.5C260.123 142.034 264.003 141.982 267.352 141.317L266.9 139.347C263.807 139.961 260.145 140.023 255.899 139.507L255.73 141.5ZM267.3 141.326C268.699 141.126 270.354 140.647 272.248 139.913L271.477 138.036C269.655 138.741 268.151 139.167 266.952 139.338L267.3 141.326ZM272.231 139.92C273.181 139.573 273.964 139.333 274.587 139.191C275.228 139.045 275.626 139.021 275.836 139.047L276.005 137.054C275.453 136.987 274.793 137.071 274.082 137.233C273.352 137.399 272.487 137.667 271.494 138.029L272.231 139.92ZM275.836 139.047C276.911 139.177 277.689 139.468 278.233 139.856L279.345 138.231C278.437 137.583 277.302 137.211 276.005 137.054L275.836 139.047ZM278.233 139.856C278.84 140.288 279.125 140.692 279.238 141.041L281.13 140.477C280.836 139.574 280.19 138.833 279.345 138.231L278.233 139.856ZM279.28 141.149C279.496 141.625 279.58 142.108 279.537 142.613L281.523 142.854C281.595 141.999 281.448 141.165 281.088 140.369L279.28 141.149ZM279.537 142.613C279.455 143.583 278.995 144.825 278.041 146.362L279.741 147.469C280.77 145.811 281.403 144.265 281.523 142.854L279.537 142.613ZM278.021 146.397C277.18 147.889 275.876 149.447 274.074 151.065L275.43 152.584C277.334 150.873 278.79 149.159 279.762 147.435L278.021 146.397ZM274.074 151.065C272.28 152.677 270.202 154.138 267.834 155.444L268.838 157.213C271.319 155.844 273.518 154.302 275.43 152.584L274.074 151.065ZM267.841 155.44C265.618 156.644 262.859 157.558 259.541 158.163L259.964 160.139C263.426 159.507 266.389 158.539 268.832 157.216L267.841 155.44ZM259.541 158.163C256.253 158.763 252.837 158.85 249.288 158.419L249.119 160.412C252.855 160.866 256.471 160.776 259.964 160.139L259.541 158.163ZM249.288 158.419C238.967 157.165 230.798 153.391 224.693 147.156L223.299 148.54C229.796 155.176 238.431 159.113 249.119 160.412L249.288 158.419ZM224.698 147.162C218.639 140.884 215.989 132.999 216.803 123.393L214.818 123.152C213.959 133.273 216.766 141.772 223.294 148.535L224.698 147.162ZM216.803 123.393C217.323 117.27 219.253 112.161 222.565 108.022L220.997 106.729C217.416 111.203 215.366 116.691 214.818 123.152L216.803 123.393ZM222.563 108.026C225.977 103.799 230.394 100.852 235.844 99.1828L235.203 97.2603C229.405 99.0357 224.662 102.191 220.999 106.726L222.563 108.026ZM235.856 99.1789C241.331 97.4219 247.516 96.9487 254.431 97.7889L254.6 95.796C247.453 94.9276 240.977 95.4072 235.191 97.2642L235.856 99.1789ZM254.431 97.7889C261.054 98.5936 266.364 100.048 270.403 102.115L271.254 100.331C266.927 98.1171 261.362 96.6176 254.6 95.796L254.431 97.7889ZM270.424 102.125C274.591 104.138 277.346 106.481 278.843 109.093L280.56 108.137C278.777 105.025 275.617 102.439 271.233 100.321L270.424 102.125ZM278.843 109.093C280.365 111.749 280.998 114.794 280.703 118.272L282.689 118.513C283.014 114.679 282.318 111.205 280.56 108.137L278.843 109.093ZM280.703 118.272C280.578 119.745 280.14 121.24 279.367 122.761L281.148 123.725C282.019 122.01 282.54 120.271 282.689 118.513L280.703 118.272ZM279.349 122.8C278.666 124.308 277.618 125.801 276.18 127.273L277.625 128.707C279.186 127.107 280.375 125.435 281.167 123.686L279.349 122.8ZM276.159 127.296C274.889 128.683 273.03 129.78 270.51 130.542L271.144 132.466C273.895 131.635 276.085 130.389 277.646 128.684L276.159 127.296ZM270.537 130.534C268.056 131.206 265.179 131.357 261.887 130.957L261.718 132.95C265.204 133.374 268.343 133.225 271.118 132.474L270.537 130.534ZM261.887 130.957C260.394 130.776 259.189 130.545 258.259 130.272L257.766 132.199C258.84 132.513 260.162 132.761 261.718 132.95L261.887 130.957ZM258.273 130.277C257.456 130.024 256.547 129.602 255.542 128.99L254.557 130.699C255.668 131.375 256.734 131.88 257.752 132.194L258.273 130.277ZM255.623 129.045C254.867 128.482 254.3 127.661 253.954 126.503L252.047 127.019C252.501 128.535 253.3 129.769 254.476 130.645L255.623 129.045ZM253.954 126.503C253.602 125.329 253.483 123.821 253.642 121.942L251.657 121.701C251.484 123.734 251.598 125.518 252.047 127.019L253.954 126.503ZM253.642 121.942C253.777 120.35 254.221 118.429 255.001 116.166L253.115 115.449C252.305 117.804 251.81 119.892 251.657 121.701L253.642 121.942ZM254.992 116.189C255.44 114.987 255.788 113.977 256.034 113.163C256.275 112.367 256.437 111.698 256.478 111.205L254.493 110.964C254.47 111.236 254.362 111.737 254.126 112.516C253.896 113.276 253.563 114.245 253.124 115.426L254.992 116.189Z" fill="#824F4F" mask="url(#path-7-outside-4_59_361)"/>
</g>
<g filter="url(#filter4_di_59_361)">
<mask id="path-9-outside-5_59_361" maskUnits="userSpaceOnUse" x="176.847" y="60.1194" width="37.8506" height="92.8465" fill="black">
<rect fill="white" x="176.847" y="60.1194" width="37.8506" height="92.8465"/>
<path d="M211.401 129.822C211.861 136.719 211.044 141.767 208.95 144.966C206.855 148.166 203.429 149.993 198.672 150.448C193.915 150.903 190.344 149.916 187.96 147.488C185.569 144.975 184.146 140.312 183.692 133.501L179.838 79.629C179.69 77.4153 179.772 75.4367 180.083 73.6932C180.479 71.9416 181.019 70.4332 181.704 69.1681C182.474 67.8948 183.428 66.8182 184.566 65.9381C185.704 65.0581 186.941 64.3828 188.278 63.9122C189.699 63.4336 191.217 63.117 192.831 62.9627C197.503 62.5159 201.048 63.1194 203.467 64.7732C205.97 66.4189 207.413 70.0941 207.793 75.7987L211.401 129.822Z"/>
</mask>
<path d="M211.401 129.822C211.861 136.719 211.044 141.767 208.95 144.966C206.855 148.166 203.429 149.993 198.672 150.448C193.915 150.903 190.344 149.916 187.96 147.488C185.569 144.975 184.146 140.312 183.692 133.501L179.838 79.629C179.69 77.4153 179.772 75.4367 180.083 73.6932C180.479 71.9416 181.019 70.4332 181.704 69.1681C182.474 67.8948 183.428 66.8182 184.566 65.9381C185.704 65.0581 186.941 64.3828 188.278 63.9122C189.699 63.4336 191.217 63.117 192.831 62.9627C197.503 62.5159 201.048 63.1194 203.467 64.7732C205.97 66.4189 207.413 70.0941 207.793 75.7987L211.401 129.822Z" fill="#E0AAAA"/>
<path d="M187.96 147.488L187.229 148.191C187.233 148.195 187.236 148.198 187.24 148.202L187.96 147.488ZM183.692 133.501L184.687 133.405L184.687 133.401L183.692 133.501ZM179.838 79.629L178.843 79.7242L178.843 79.729L179.838 79.629ZM180.083 73.6932L179.11 73.4977C179.107 73.5129 179.104 73.5282 179.101 73.5435L180.083 73.6932ZM181.704 69.1681L180.856 68.6656C180.847 68.6797 180.839 68.6941 180.831 68.7086L181.704 69.1681ZM188.278 63.9122L187.985 62.9627L187.972 62.9674L188.278 63.9122ZM203.467 64.7732L202.89 65.6068C202.894 65.6101 202.899 65.6134 202.904 65.6166L203.467 64.7732ZM210.405 129.918C210.862 136.754 210.026 141.522 208.121 144.432L209.778 145.5C212.062 142.012 212.861 136.684 212.396 129.727L210.405 129.918ZM208.121 144.432C206.243 147.3 203.144 149.016 198.606 149.45L198.739 151.446C203.714 150.97 207.467 149.031 209.778 145.5L208.121 144.432ZM198.606 149.45C194.024 149.888 190.79 148.923 188.679 146.774L187.24 148.202C189.899 150.91 193.806 151.917 198.739 151.446L198.606 149.45ZM188.69 146.785C186.547 144.531 185.139 140.172 184.687 133.405L182.696 133.596C183.154 140.452 184.591 145.418 187.229 148.191L188.69 146.785ZM184.687 133.401L180.833 79.5291L178.843 79.729L182.696 133.601L184.687 133.401ZM180.834 79.5338C180.69 77.3815 180.771 75.4874 181.065 73.8428L179.101 73.5435C178.772 75.3859 178.691 77.4491 178.843 79.7242L180.834 79.5338ZM181.056 73.8887C181.436 72.2067 181.948 70.7914 182.578 69.6275L180.831 68.7086C180.091 70.0749 179.522 71.6764 179.11 73.4977L181.056 73.8887ZM182.553 69.6705C183.259 68.5035 184.127 67.5248 185.161 66.726L183.972 65.1503C182.729 66.1115 181.69 67.2861 180.856 68.6656L182.553 69.6705ZM185.161 66.726C186.212 65.9129 187.352 65.2909 188.584 64.8571L187.972 62.9674C186.531 63.4747 185.196 64.2033 183.972 65.1503L185.161 66.726ZM188.571 64.8617C189.912 64.4098 191.354 64.1081 192.897 63.9605L192.764 61.9649C191.08 62.126 189.486 62.4573 187.985 62.9628L188.571 64.8617ZM192.897 63.9605C197.465 63.5236 200.74 64.1368 202.89 65.6068L204.044 63.9396C201.357 62.102 197.541 61.5081 192.764 61.9649L192.897 63.9605ZM202.904 65.6166C205.003 66.996 206.421 70.2448 206.798 75.8939L208.789 75.7035C208.404 69.9433 206.938 65.8418 204.029 63.9298L202.904 65.6166ZM206.798 75.8939L210.405 129.918L212.396 129.727L208.789 75.7035L206.798 75.8939Z" fill="#824F4F" mask="url(#path-9-outside-5_59_361)"/>
</g>
<g filter="url(#filter5_di_59_361)">
<mask id="path-11-outside-6_59_361" maskUnits="userSpaceOnUse" x="122.372" y="95.2936" width="74.7969" height="74.5074" fill="black">
<rect fill="white" x="122.372" y="95.2936" width="74.7969" height="74.5074"/>
<path d="M159.204 164.027C148.9 162.544 140.638 158.641 134.419 152.319C128.284 146.009 125.682 138.227 126.612 128.972C127.619 118.953 131.707 111.532 138.875 106.707C146.137 101.809 155.004 100.114 165.477 101.622C175.359 103.045 182.402 105.867 186.604 110.09C190.9 114.24 192.74 119.372 192.126 125.485C192.006 126.674 191.722 127.796 191.273 128.851C190.909 129.918 190.333 130.955 189.547 131.961C188.853 132.895 187.91 133.75 186.719 134.526C185.62 135.229 184.356 135.865 182.928 136.435C181.508 136.919 179.848 137.24 177.947 137.397C176.055 137.469 174.053 137.353 171.941 137.049L154.065 134.605C154.636 137.443 155.939 139.827 157.973 141.757C160.015 143.601 162.726 144.767 166.104 145.253C169.736 145.776 173.499 145.844 177.394 145.457C179.041 145.264 180.841 144.834 182.793 144.167C184.83 143.513 186.27 143.247 187.115 143.368C188.551 143.575 189.606 144.158 190.281 145.116C191.04 146.087 191.356 147.209 191.228 148.483C191.074 150.011 190.211 151.782 188.637 153.795C187.073 155.723 184.955 157.614 182.283 159.469C179.705 161.251 176.354 162.621 172.231 163.577C168.107 164.534 163.765 164.684 159.204 164.027ZM154.251 126.362C160.087 127.117 163.259 127.53 163.765 127.603C165.032 127.786 166.038 127.155 166.783 125.712C167.316 124.669 167.681 123.171 167.877 121.218C168.415 115.869 167.079 112.964 163.87 112.502C162.687 112.331 161.441 112.798 160.13 113.901C158.904 115.017 157.749 116.702 156.666 118.958C155.591 121.129 154.786 123.597 154.251 126.362Z"/>
</mask>
<path d="M159.204 164.027C148.9 162.544 140.638 158.641 134.419 152.319C128.284 146.009 125.682 138.227 126.612 128.972C127.619 118.953 131.707 111.532 138.875 106.707C146.137 101.809 155.004 100.114 165.477 101.622C175.359 103.045 182.402 105.867 186.604 110.09C190.9 114.24 192.74 119.372 192.126 125.485C192.006 126.674 191.722 127.796 191.273 128.851C190.909 129.918 190.333 130.955 189.547 131.961C188.853 132.895 187.91 133.75 186.719 134.526C185.62 135.229 184.356 135.865 182.928 136.435C181.508 136.919 179.848 137.24 177.947 137.397C176.055 137.469 174.053 137.353 171.941 137.049L154.065 134.605C154.636 137.443 155.939 139.827 157.973 141.757C160.015 143.601 162.726 144.767 166.104 145.253C169.736 145.776 173.499 145.844 177.394 145.457C179.041 145.264 180.841 144.834 182.793 144.167C184.83 143.513 186.27 143.247 187.115 143.368C188.551 143.575 189.606 144.158 190.281 145.116C191.04 146.087 191.356 147.209 191.228 148.483C191.074 150.011 190.211 151.782 188.637 153.795C187.073 155.723 184.955 157.614 182.283 159.469C179.705 161.251 176.354 162.621 172.231 163.577C168.107 164.534 163.765 164.684 159.204 164.027ZM154.251 126.362C160.087 127.117 163.259 127.53 163.765 127.603C165.032 127.786 166.038 127.155 166.783 125.712C167.316 124.669 167.681 123.171 167.877 121.218C168.415 115.869 167.079 112.964 163.87 112.502C162.687 112.331 161.441 112.798 160.13 113.901C158.904 115.017 157.749 116.702 156.666 118.958C155.591 121.129 154.786 123.597 154.251 126.362Z" fill="#E0AAAA"/>
<path d="M134.419 152.319L133.723 153.008L133.728 153.013L134.419 152.319ZM138.875 106.707L139.45 107.55L139.451 107.55L138.875 106.707ZM186.604 110.09L185.918 110.788C185.923 110.793 185.928 110.798 185.933 110.803L186.604 110.09ZM191.273 128.851L190.357 128.422C190.347 128.444 190.339 128.466 190.331 128.488L191.273 128.851ZM189.547 131.961L188.756 131.318C188.752 131.325 188.747 131.331 188.742 131.337L189.547 131.961ZM186.719 134.526L187.275 135.381L187.282 135.377L186.719 134.526ZM182.928 136.435L183.281 137.388C183.296 137.383 183.311 137.378 183.326 137.372L182.928 136.435ZM177.947 137.397L178.026 138.402C178.04 138.401 178.055 138.4 178.069 138.399L177.947 137.397ZM171.941 137.049L172.041 136.054L172.034 136.053L171.941 137.049ZM154.065 134.605L154.158 133.609C153.844 133.566 153.535 133.675 153.324 133.903C153.114 134.131 153.027 134.451 153.09 134.765L154.065 134.605ZM157.973 141.757L157.308 142.476C157.314 142.482 157.321 142.488 157.327 142.494L157.973 141.757ZM177.394 145.457L177.532 146.458C177.538 146.457 177.543 146.456 177.549 146.456L177.394 145.457ZM182.793 144.167L182.456 143.208C182.451 143.21 182.445 143.212 182.44 143.214L182.793 144.167ZM190.281 145.116L189.478 145.676C189.489 145.691 189.499 145.705 189.51 145.719L190.281 145.116ZM188.637 153.795L189.417 154.451C189.421 154.446 189.424 154.442 189.428 154.437L188.637 153.795ZM182.283 159.469L182.868 160.306L182.869 160.305L182.283 159.469ZM172.231 163.577L172.491 164.557L172.231 163.577ZM154.251 126.362L153.274 126.13C153.22 126.408 153.287 126.7 153.457 126.934C153.626 127.169 153.884 127.323 154.165 127.359L154.251 126.362ZM166.783 125.712L167.669 126.206L167.671 126.202L166.783 125.712ZM160.13 113.901L159.475 113.118C159.466 113.126 159.457 113.134 159.448 113.142L160.13 113.901ZM156.666 118.958L157.559 119.437L157.564 119.427L156.666 118.958ZM159.304 163.032C149.176 161.574 141.138 157.754 135.11 151.625L133.728 153.013C140.138 159.528 148.623 163.513 159.104 165.022L159.304 163.032ZM135.114 151.63C129.215 145.562 126.699 138.094 127.602 129.115L125.622 128.83C124.664 138.36 127.353 146.456 133.723 153.008L135.114 151.63ZM127.602 129.115C128.584 119.339 132.551 112.194 139.45 107.55L138.3 105.863C130.863 110.869 126.654 118.568 125.622 128.83L127.602 129.115ZM139.451 107.55C146.482 102.808 155.098 101.137 165.377 102.617L165.577 100.627C154.911 99.091 145.792 100.81 138.299 105.863L139.451 107.55ZM165.377 102.617C175.181 104.028 181.954 106.806 185.918 110.788L187.291 109.392C182.849 104.929 175.538 102.061 165.577 100.627L165.377 102.617ZM185.933 110.803C189.983 114.716 191.721 119.525 191.136 125.342L193.116 125.627C193.76 119.218 191.816 113.764 187.276 109.378L185.933 110.803ZM191.136 125.342C191.026 126.435 190.766 127.46 190.357 128.422L192.19 129.279C192.678 128.131 192.986 126.912 193.116 125.627L191.136 125.342ZM190.331 128.488C190.006 129.44 189.487 130.384 188.756 131.318L190.337 132.604C191.18 131.526 191.812 130.396 192.215 129.213L190.331 128.488ZM188.742 131.337C188.128 132.163 187.274 132.946 186.156 133.674L187.282 135.377C188.546 134.554 189.578 133.627 190.351 132.586L188.742 131.337ZM186.162 133.67C185.121 134.336 183.912 134.946 182.53 135.498L183.326 137.372C184.8 136.784 186.118 136.121 187.275 135.381L186.162 133.67ZM182.575 135.481C181.246 135.935 179.666 136.243 177.825 136.395L178.069 138.399C180.029 138.237 181.77 137.904 183.281 137.388L182.575 135.481ZM177.868 136.393C176.042 136.462 174.1 136.351 172.041 136.054L171.841 138.044C174.005 138.356 176.067 138.476 178.026 138.402L177.868 136.393ZM172.034 136.053L154.158 133.609L153.972 135.601L171.848 138.045L172.034 136.053ZM153.09 134.765C153.702 137.807 155.109 140.39 157.308 142.476L158.637 141.037C156.769 139.265 155.57 137.079 155.039 134.444L153.09 134.765ZM157.327 142.494C159.56 144.51 162.478 145.74 166.004 146.248L166.204 144.258C162.973 143.793 160.47 142.692 158.618 141.02L157.327 142.494ZM166.004 146.248C169.721 146.783 173.564 146.852 177.532 146.458L177.256 144.457C173.434 144.836 169.751 144.769 166.204 144.258L166.004 146.248ZM177.549 146.456C179.279 146.253 181.146 145.804 183.146 145.121L182.44 143.214C180.537 143.864 178.804 144.275 177.239 144.459L177.549 146.456ZM183.13 145.127C184.126 144.807 184.953 144.589 185.619 144.466C186.3 144.34 186.75 144.325 187.015 144.363L187.215 142.373C186.636 142.29 185.942 142.348 185.183 142.488C184.409 142.631 183.497 142.874 182.456 143.208L183.13 145.127ZM187.015 144.363C188.249 144.541 189.012 145.014 189.478 145.676L191.084 144.557C190.2 143.302 188.852 142.609 187.215 142.373L187.015 144.363ZM189.51 145.719C190.092 146.463 190.341 147.313 190.238 148.34L192.218 148.625C192.37 147.106 191.989 145.711 191.052 144.514L189.51 145.719ZM190.238 148.34C190.112 149.597 189.377 151.194 187.847 153.152L189.428 154.437C191.044 152.37 192.037 150.425 192.218 148.625L190.238 148.34ZM187.858 153.138C186.363 154.98 184.317 156.814 181.697 158.633L182.869 160.305C185.592 158.414 187.782 156.465 189.417 154.451L187.858 153.138ZM181.699 158.632C179.245 160.328 176.014 161.659 171.97 162.597L172.491 164.557C176.694 163.582 180.165 162.174 182.868 160.306L181.699 158.632ZM171.97 162.597C167.972 163.525 163.753 163.673 159.304 163.032L159.104 165.022C163.777 165.695 168.242 165.543 172.491 164.557L171.97 162.597ZM154.165 127.359C160.008 128.114 163.168 128.527 163.665 128.598L163.865 126.608C163.349 126.534 160.166 126.119 154.336 125.366L154.165 127.359ZM163.665 128.598C164.514 128.72 165.314 128.57 166.019 128.128C166.707 127.696 167.246 127.026 167.669 126.206L165.897 125.219C165.575 125.841 165.238 126.208 164.921 126.407C164.62 126.595 164.284 126.669 163.865 126.608L163.665 128.598ZM167.671 126.202C168.284 125.004 168.666 123.367 168.867 121.361L166.888 121.076C166.697 122.976 166.349 124.334 165.895 125.222L167.671 126.202ZM168.867 121.361C169.143 118.619 168.961 116.338 168.178 114.636C167.355 112.846 165.907 111.786 163.97 111.507L163.77 113.497C165.042 113.68 165.867 114.304 166.38 115.419C166.933 116.622 167.15 118.469 166.888 121.076L168.867 121.361ZM163.97 111.507C162.406 111.282 160.895 111.922 159.475 113.118L160.786 114.684C161.986 113.674 162.968 113.381 163.77 113.497L163.97 111.507ZM159.448 113.142C158.099 114.369 156.88 116.173 155.767 118.489L157.564 119.427C158.619 117.232 159.709 115.664 160.813 114.661L159.448 113.142ZM155.772 118.479C154.653 120.738 153.823 123.292 153.274 126.13L155.227 126.594C155.748 123.903 156.528 121.52 157.559 119.437L155.772 118.479Z" fill="#824F4F" mask="url(#path-11-outside-6_59_361)"/>
</g>
<g filter="url(#filter6_di_59_361)">
<mask id="path-13-outside-7_59_361" maskUnits="userSpaceOnUse" x="12.5598" y="70.8888" width="125.433" height="99.9538" fill="black">
<rect fill="white" x="12.5598" y="70.8888" width="125.433" height="99.9538"/>
<path d="M95.8135 142.785C99.1321 142.535 101.336 140.572 102.424 136.897C103.508 133.137 103.835 127.166 103.405 118.986L102.015 87.6497C101.778 83.1333 102.627 79.7756 104.561 77.5768C106.577 75.2863 110.137 73.949 115.243 73.5648C118.391 73.3279 120.928 73.6503 122.854 74.5321C124.865 75.4074 126.63 77.2851 128.148 80.1652C129.666 83.0453 130.815 87.0226 131.594 92.0972C132.373 97.1717 132.984 103.927 133.427 112.364C133.691 117.391 133.512 122.11 132.89 126.52C132.267 130.93 131.317 134.809 130.041 138.156C128.764 141.503 127.175 144.574 125.271 147.369C123.448 150.073 121.475 152.36 119.353 154.231C117.23 156.102 114.966 157.727 112.561 159.105C110.151 160.399 107.769 161.391 105.413 162.082C103.138 162.681 100.894 163.063 98.6815 163.23C91.0232 163.806 83.9605 161.899 77.4936 157.509C71.631 162.998 64.828 166.034 57.0846 166.616C53.766 166.866 50.4227 166.647 47.0549 165.959C43.6825 165.187 40.1893 163.738 36.5751 161.615C33.0461 159.485 29.8708 156.772 27.0494 153.477C24.2235 150.096 21.8119 145.658 19.8146 140.162C17.8979 134.574 16.7582 128.329 16.3956 121.426C15.8091 110.263 15.8765 101.788 16.5977 96.002C17.4039 90.2093 18.817 86.2103 20.8369 84.005C22.9419 81.7934 26.0791 80.5307 30.2487 80.2169C33.7375 79.9544 36.5298 80.2576 38.6258 81.1266C40.7173 81.9103 42.2377 83.2075 43.1871 85.0182C44.1365 86.8289 44.6896 89.2255 44.8463 92.2081L46.6124 123.387C47.0422 131.568 47.9915 137.443 49.4604 141.011C50.9293 144.579 53.5358 146.222 57.2799 145.941C59.1519 145.8 60.5156 144.927 61.3711 143.323C62.222 141.633 62.7259 139.029 62.8828 135.509C61.5169 130.65 60.5587 122.98 60.008 112.498C59.6991 106.618 59.5805 101.922 59.6523 98.4088C59.724 94.8957 59.948 91.8417 60.3242 89.2468C60.7005 86.6519 61.4552 84.7558 62.5883 83.5583C63.7214 82.3609 65 81.4947 66.4242 80.9598C67.929 80.3332 70.0004 79.9207 72.6383 79.7222C74.1699 79.607 75.4911 79.5503 76.6018 79.5523C77.7976 79.5479 78.9172 79.7203 79.9607 80.0695C81.0042 80.4188 81.8753 80.7382 82.5739 81.0279C83.2726 81.3175 83.9443 81.9086 84.5892 82.8012C85.2341 83.6937 85.7447 84.468 86.1208 85.1242C86.497 85.7803 86.853 86.8657 87.1889 88.3803C87.6099 89.8886 87.8942 91.2361 88.042 92.4227C88.2704 93.5177 88.445 95.2156 88.5659 97.5164C88.7674 99.7256 88.9129 101.682 89.0024 103.387C89.1726 104.999 89.3382 107.34 89.4994 110.407C90.0634 121.145 89.9267 129.111 89.0891 134.307C89.5906 137.35 90.3474 139.56 91.3596 140.938C92.3717 142.316 93.8563 142.932 95.8135 142.785Z"/>
</mask>
<path d="M95.8135 142.785C99.1321 142.535 101.336 140.572 102.424 136.897C103.508 133.137 103.835 127.166 103.405 118.986L102.015 87.6497C101.778 83.1333 102.627 79.7756 104.561 77.5768C106.577 75.2863 110.137 73.949 115.243 73.5648C118.391 73.3279 120.928 73.6503 122.854 74.5321C124.865 75.4074 126.63 77.2851 128.148 80.1652C129.666 83.0453 130.815 87.0226 131.594 92.0972C132.373 97.1717 132.984 103.927 133.427 112.364C133.691 117.391 133.512 122.11 132.89 126.52C132.267 130.93 131.317 134.809 130.041 138.156C128.764 141.503 127.175 144.574 125.271 147.369C123.448 150.073 121.475 152.36 119.353 154.231C117.23 156.102 114.966 157.727 112.561 159.105C110.151 160.399 107.769 161.391 105.413 162.082C103.138 162.681 100.894 163.063 98.6815 163.23C91.0232 163.806 83.9605 161.899 77.4936 157.509C71.631 162.998 64.828 166.034 57.0846 166.616C53.766 166.866 50.4227 166.647 47.0549 165.959C43.6825 165.187 40.1893 163.738 36.5751 161.615C33.0461 159.485 29.8708 156.772 27.0494 153.477C24.2235 150.096 21.8119 145.658 19.8146 140.162C17.8979 134.574 16.7582 128.329 16.3956 121.426C15.8091 110.263 15.8765 101.788 16.5977 96.002C17.4039 90.2093 18.817 86.2103 20.8369 84.005C22.9419 81.7934 26.0791 80.5307 30.2487 80.2169C33.7375 79.9544 36.5298 80.2576 38.6258 81.1266C40.7173 81.9103 42.2377 83.2075 43.1871 85.0182C44.1365 86.8289 44.6896 89.2255 44.8463 92.2081L46.6124 123.387C47.0422 131.568 47.9915 137.443 49.4604 141.011C50.9293 144.579 53.5358 146.222 57.2799 145.941C59.1519 145.8 60.5156 144.927 61.3711 143.323C62.222 141.633 62.7259 139.029 62.8828 135.509C61.5169 130.65 60.5587 122.98 60.008 112.498C59.6991 106.618 59.5805 101.922 59.6523 98.4088C59.724 94.8957 59.948 91.8417 60.3242 89.2468C60.7005 86.6519 61.4552 84.7558 62.5883 83.5583C63.7214 82.3609 65 81.4947 66.4242 80.9598C67.929 80.3332 70.0004 79.9207 72.6383 79.7222C74.1699 79.607 75.4911 79.5503 76.6018 79.5523C77.7976 79.5479 78.9172 79.7203 79.9607 80.0695C81.0042 80.4188 81.8753 80.7382 82.5739 81.0279C83.2726 81.3175 83.9443 81.9086 84.5892 82.8012C85.2341 83.6937 85.7447 84.468 86.1208 85.1242C86.497 85.7803 86.853 86.8657 87.1889 88.3803C87.6099 89.8886 87.8942 91.2361 88.042 92.4227C88.2704 93.5177 88.445 95.2156 88.5659 97.5164C88.7674 99.7256 88.9129 101.682 89.0024 103.387C89.1726 104.999 89.3382 107.34 89.4994 110.407C90.0634 121.145 89.9267 129.111 89.0891 134.307C89.5906 137.35 90.3474 139.56 91.3596 140.938C92.3717 142.316 93.8563 142.932 95.8135 142.785Z" fill="#E0AAAA"/>
<path d="M102.424 136.897L103.381 137.163L103.383 137.155L102.424 136.897ZM103.405 118.986L102.408 119.053L102.408 119.061L103.405 118.986ZM102.015 87.6497L103.013 87.5828L103.012 87.5747L102.015 87.6497ZM122.854 74.5321L122.423 75.4447C122.428 75.4472 122.434 75.4497 122.439 75.4521L122.854 74.5321ZM128.148 80.1652L129.033 79.6818L129.033 79.6818L128.148 80.1652ZM131.594 92.0972L132.581 91.9231L132.581 91.9231L131.594 92.0972ZM132.89 126.52L131.901 126.402L131.901 126.402L132.89 126.52ZM125.271 147.369L124.45 146.817L124.448 146.821L125.271 147.369ZM119.353 154.231L120.002 154.977L120.002 154.977L119.353 154.231ZM112.561 159.105L113.016 159.986C113.025 159.982 113.033 159.977 113.041 159.972L112.561 159.105ZM105.413 162.082L105.646 163.05C105.655 163.047 105.664 163.045 105.673 163.042L105.413 162.082ZM77.4936 157.509L78.0659 156.676C77.6833 156.416 77.1661 156.461 76.821 156.784L77.4936 157.509ZM47.0549 165.959L46.8118 166.936C46.8194 166.938 46.827 166.939 46.8347 166.941L47.0549 165.959ZM36.5751 161.615L36.0462 162.476L36.0561 162.482L36.5751 161.615ZM27.0494 153.477L26.2782 154.13L26.2856 154.139L27.0494 153.477ZM19.8146 140.162L18.8695 140.506C18.8715 140.512 18.8734 140.518 18.8755 140.523L19.8146 140.162ZM16.5977 96.002L15.6088 95.8854C15.6081 95.8902 15.6075 95.895 15.6069 95.8998L16.5977 96.002ZM20.8369 84.005L20.122 83.3221C20.1174 83.3269 20.1129 83.3317 20.1085 83.3366L20.8369 84.005ZM38.6258 81.1266L38.2268 82.0533C38.2371 82.0576 38.2475 82.0617 38.258 82.0656L38.6258 81.1266ZM43.1871 85.0182L44.0732 84.5366L44.0732 84.5366L43.1871 85.0182ZM44.8463 92.2081L43.8491 92.2831L43.8493 92.2872L44.8463 92.2081ZM46.6124 123.387L47.6096 123.312L47.6094 123.308L46.6124 123.387ZM49.4604 141.011L50.3847 140.611L50.3847 140.611L49.4604 141.011ZM61.3711 143.323L62.2493 143.78C62.2531 143.773 62.2568 143.765 62.2604 143.758L61.3711 143.323ZM62.8828 135.509L63.8803 135.532C63.8851 135.425 63.8729 135.319 63.8443 135.218L62.8828 135.509ZM59.6523 98.4088L58.6539 98.4107L58.6539 98.4107L59.6523 98.4088ZM60.3242 89.2468L59.3361 89.1246L59.3361 89.1246L60.3242 89.2468ZM66.4242 80.9598L66.7559 81.8966C66.7671 81.8924 66.7783 81.888 66.7893 81.8834L66.4242 80.9598ZM76.6018 79.5523L76.5776 80.5538L76.5831 80.5537L76.6018 79.5523ZM79.9607 80.0695L79.6256 81.0202L79.6256 81.0202L79.9607 80.0695ZM84.5892 82.8012L83.7761 83.4006L83.7761 83.4006L84.5892 82.8012ZM86.1208 85.1242L85.2524 85.6379L85.2524 85.6379L86.1208 85.1242ZM87.1889 88.3803L86.2139 88.6185C86.2178 88.6359 86.2221 88.6531 86.2269 88.6702L87.1889 88.3803ZM88.042 92.4227L87.0511 92.5687C87.0544 92.5955 87.0589 92.6222 87.0644 92.6487L88.042 92.4227ZM88.5659 97.5164L87.5687 97.5915C87.5694 97.6043 87.5703 97.617 87.5714 97.6298L88.5659 97.5164ZM89.0024 103.387L88.0052 103.462C88.0061 103.479 88.0075 103.497 88.0094 103.514L89.0024 103.387ZM89.0891 134.307L88.1034 134.169C88.0861 134.277 88.0862 134.386 88.1038 134.492L89.0891 134.307ZM91.3596 140.938L90.5509 141.544L90.5509 141.544L91.3596 140.938ZM95.8659 143.783C97.7144 143.644 99.3159 143.019 100.609 141.868C101.892 140.725 102.798 139.129 103.381 137.163L101.467 136.632C100.961 138.341 100.222 139.563 99.3014 140.383C98.3907 141.194 97.2312 141.675 95.761 141.786L95.8659 143.783ZM103.383 137.155C104.517 133.222 104.833 127.107 104.402 118.911L102.408 119.061C102.837 127.225 102.499 133.052 101.465 136.639L103.383 137.155ZM104.403 118.919L103.013 87.5828L101.018 87.7166L102.408 119.053L104.403 118.919ZM103.012 87.5747C102.781 83.1785 103.624 80.1391 105.304 78.2299L103.819 76.9237C101.63 79.4121 100.774 83.088 101.018 87.7248L103.012 87.5747ZM105.304 78.2299C107.053 76.2423 110.281 74.9407 115.295 74.5634L115.19 72.5662C109.993 72.9573 106.101 74.3303 103.819 76.9237L105.304 78.2299ZM115.295 74.5634C118.351 74.3335 120.703 74.6571 122.423 75.4447L123.286 73.6194C121.154 72.6436 118.432 72.3223 115.19 72.5662L115.295 74.5634ZM122.439 75.4521C124.171 76.206 125.8 77.8732 127.263 80.6486L129.033 79.6818C127.46 76.697 125.559 74.6088 123.269 73.612L122.439 75.4521ZM127.263 80.6486C128.71 83.3937 129.836 87.2508 130.607 92.2712L132.581 91.9231C131.793 86.7944 130.622 82.697 129.033 79.6818L127.263 80.6486ZM130.607 92.2712C131.379 97.2989 131.988 104.017 132.43 112.439L134.424 112.288C133.98 103.837 133.367 97.0444 132.581 91.9231L130.607 92.2712ZM132.43 112.439C132.691 117.41 132.513 122.064 131.901 126.402L133.878 126.639C134.511 122.156 134.692 117.372 134.424 112.288L132.43 112.439ZM131.901 126.402C131.286 130.754 130.353 134.556 129.109 137.816L130.973 138.495C132.282 135.062 133.247 131.106 133.878 126.639L131.901 126.402ZM129.109 137.816C127.86 141.093 126.306 144.092 124.45 146.817L126.092 147.921C128.043 145.056 129.669 141.912 130.973 138.495L129.109 137.816ZM124.448 146.821C122.667 149.463 120.751 151.681 118.703 153.485L120.002 154.977C122.2 153.04 124.23 150.683 126.094 147.917L124.448 146.821ZM118.703 153.485C116.631 155.311 114.424 156.895 112.08 158.239L113.041 159.972C115.508 158.558 117.828 156.893 120.002 154.977L118.703 153.485ZM112.105 158.225C109.751 159.489 107.434 160.452 105.153 161.121L105.673 163.042C108.103 162.33 110.551 161.309 113.016 159.986L112.105 158.225ZM105.18 161.113C102.961 161.697 100.777 162.069 98.6291 162.231L98.734 164.228C101.011 164.057 103.315 163.664 105.646 163.05L105.18 161.113ZM98.6291 162.231C91.2 162.79 84.3561 160.946 78.0659 156.676L76.9212 158.343C83.5649 162.852 90.8464 164.822 98.734 164.228L98.6291 162.231ZM76.821 156.784C71.1247 162.117 64.5394 165.053 57.0321 165.618L57.1371 167.615C65.1166 167.015 72.1373 163.879 78.1662 158.234L76.821 156.784ZM57.0321 165.618C53.8086 165.86 50.5571 165.648 47.2751 164.978L46.8347 166.941C50.2884 167.646 53.7234 167.872 57.1371 167.615L57.0321 165.618ZM47.298 164.983C44.0413 164.237 40.6406 162.832 37.0942 160.748L36.0561 162.482C39.738 164.645 43.3238 166.137 46.8118 166.936L47.298 164.983ZM37.104 160.754C33.668 158.68 30.571 156.036 27.8132 152.815L26.2856 154.139C29.1707 157.509 32.4242 160.29 36.0463 162.476L37.104 160.754ZM27.8206 152.823C25.0861 149.552 22.724 145.222 20.7537 139.8L18.8755 140.523C20.8998 146.094 23.3609 150.64 26.2783 154.13L27.8206 152.823ZM20.7596 139.817C18.8771 134.329 17.7513 128.176 17.3928 121.351L15.3984 121.501C15.7651 128.481 16.9187 134.819 18.8695 140.506L20.7596 139.817ZM17.3928 121.351C16.8071 110.204 16.8786 101.8 17.5885 96.1042L15.6069 95.8998C14.8744 101.776 14.8112 110.323 15.3984 121.501L17.3928 121.351ZM17.5866 96.1185C18.3875 90.3645 19.7687 86.6349 21.5653 84.6735L20.1085 83.3366C17.8653 85.7857 16.4204 90.0541 15.6088 95.8854L17.5866 96.1185ZM21.5518 84.6879C23.4237 82.7211 26.2851 81.5178 30.3011 81.2156L30.1962 79.2183C25.8731 79.5436 22.46 80.8656 20.122 83.3221L21.5518 84.6879ZM30.3011 81.2156C33.7094 80.9591 36.3282 81.2662 38.2268 82.0533L39.0248 80.1998C36.7315 79.249 33.7655 78.9497 30.1962 79.2183L30.3011 81.2156ZM38.258 82.0656C40.1483 82.7739 41.473 83.9205 42.301 85.4997L44.0732 84.5366C43.0024 82.4944 41.2862 81.0466 38.9936 80.1875L38.258 82.0656ZM42.301 85.4997C43.1621 87.142 43.6968 89.3842 43.8491 92.2831L45.8435 92.1331C45.6824 89.0669 45.111 86.5158 44.0732 84.5366L42.301 85.4997ZM43.8493 92.2872L45.6154 123.467L47.6094 123.308L45.8432 92.129L43.8493 92.2872ZM45.6152 123.463C46.0458 131.659 46.9995 137.678 48.5361 141.411L50.3847 140.611C48.9835 137.207 48.0385 131.477 47.6096 123.312L45.6152 123.463ZM48.5361 141.411C49.3283 143.335 50.4606 144.818 51.972 145.771C53.4863 146.725 55.2936 147.093 57.3323 146.939L57.2274 144.942C55.5221 145.07 54.1541 144.757 53.0619 144.068C51.9667 143.378 51.0614 142.255 50.3847 140.611L48.5361 141.411ZM57.3323 146.939C59.5336 146.774 61.2199 145.71 62.2493 143.78L60.4928 142.866C59.8114 144.144 58.7702 144.826 57.2274 144.942L57.3323 146.939ZM62.2604 143.758C63.211 141.871 63.7217 139.091 63.8803 135.532L61.8852 135.487C61.7301 138.967 61.2331 141.396 60.4818 142.888L62.2604 143.758ZM63.8443 135.218C62.5098 130.47 61.5552 122.892 61.0052 112.423L59.0108 112.573C59.5621 123.068 60.524 130.83 61.9212 135.801L63.8443 135.218ZM61.0052 112.423C60.6968 106.554 60.5796 101.885 60.6506 98.4068L58.6539 98.4107C58.5815 101.959 58.7014 106.683 59.0108 112.573L61.0052 112.423ZM60.6506 98.4068C60.7218 94.9222 60.9437 91.9116 61.3124 89.3691L59.3361 89.1246C58.9523 91.7719 58.7262 94.8693 58.6539 98.4107L60.6506 98.4068ZM61.3124 89.3691C61.6751 86.8673 62.3823 85.2144 63.3053 84.2391L61.8713 82.8776C60.528 84.2971 59.7259 86.4366 59.3361 89.1246L61.3124 89.3691ZM63.3053 84.2391C64.3394 83.1462 65.4887 82.3726 66.7559 81.8966L66.0925 80.0229C64.5113 80.6168 63.1034 81.5755 61.8713 82.8776L63.3053 84.2391ZM66.7893 81.8834C68.1511 81.3164 70.1011 80.9157 72.6907 80.7208L72.5858 78.7236C69.8996 78.9257 67.7069 79.35 66.0591 80.0361L66.7893 81.8834ZM72.6907 80.7208C74.2057 80.6068 75.5 80.5518 76.5776 80.5537L76.626 78.5509C75.4822 78.5488 74.1342 78.6071 72.5858 78.7236L72.6907 80.7208ZM76.5831 80.5537C77.6795 80.5497 78.6915 80.7076 79.6256 81.0202L80.2958 79.1189C79.1429 78.733 77.9156 78.5461 76.6205 78.5509L76.5831 80.5537ZM79.6256 81.0202C80.6562 81.3651 81.5043 81.6766 82.1749 81.9546L82.9729 80.1011C82.2462 79.7998 81.3522 79.4724 80.2958 79.1189L79.6256 81.0202ZM82.1749 81.9546C82.6485 82.1509 83.1911 82.5909 83.7761 83.4006L85.4023 82.2017C84.6976 81.2263 83.8967 80.4841 82.9729 80.1011L82.1749 81.9546ZM83.7761 83.4006C84.4092 84.2768 84.8989 85.0213 85.2524 85.6379L86.9893 84.6104C86.5904 83.9148 86.059 83.1106 85.4023 82.2017L83.7761 83.4006ZM85.2524 85.6379C85.5511 86.1589 85.8821 87.1219 86.2139 88.6185L88.1639 88.1422C87.824 86.6094 87.4429 85.4016 86.9893 84.6104L85.2524 85.6379ZM86.2269 88.6702C86.6385 90.1451 86.9109 91.4431 87.0511 92.5687L89.0329 92.2767C88.8775 91.029 88.5812 89.6322 88.151 88.0905L86.2269 88.6702ZM87.0644 92.6487C87.2765 93.6656 87.4483 95.3002 87.5687 97.5915L89.5631 97.4414C89.4417 95.131 89.2643 93.3698 89.0196 92.1967L87.0644 92.6487ZM87.5714 97.6298C87.7721 99.8298 87.9165 101.773 88.0052 103.462L89.9996 103.312C89.9092 101.591 89.7626 99.6215 89.5603 97.4031L87.5714 97.6298ZM88.0094 103.514C88.1767 105.1 88.3413 107.42 88.5022 110.482L90.4966 110.332C90.3351 107.26 90.1684 104.898 89.9955 103.259L88.0094 103.514ZM88.5022 110.482C89.0656 121.206 88.9231 129.084 88.1034 134.169L90.0748 134.446C90.9303 129.138 91.0613 121.083 90.4966 110.332L88.5022 110.482ZM88.1038 134.492C88.6136 137.585 89.4019 139.979 90.5509 141.544L92.1683 140.333C91.293 139.141 90.5676 137.115 90.0744 134.123L88.1038 134.492ZM90.5509 141.544C91.7915 143.233 93.6246 143.952 95.8659 143.783L95.761 141.786C94.0881 141.912 92.9519 141.4 92.1683 140.333L90.5509 141.544Z" fill="#824F4F" mask="url(#path-13-outside-7_59_361)"/>
</g>
<defs>
<filter id="filter0_di_59_361" x="420.392" y="68.3138" width="86.9687" height="81.8329" filterUnits="userSpaceOnUse" color-interpolation-filters="sRGB">
<feFlood flood-opacity="0" result="BackgroundImageFix"/>
<feColorMatrix in="SourceAlpha" type="matrix" values="0 0 0 0 0 0 0 0 0 0 0 0 0 0 0 0 0 0 127 0" result="hardAlpha"/>
<feOffset dx="5" dy="5"/>
<feGaussianBlur stdDeviation="4.05"/>
<feComposite in2="hardAlpha" operator="out"/>
<feColorMatrix type="matrix" values="0 0 0 0 0 0 0 0 0 0 0 0 0 0 0 0 0 0 0.3 0"/>
<feBlend mode="normal" in2="BackgroundImageFix" result="effect1_dropShadow_59_361"/>
<feBlend mode="normal" in="SourceGraphic" in2="effect1_dropShadow_59_361" result="shape"/>
<feColorMatrix in="SourceAlpha" type="matrix" values="0 0 0 0 0 0 0 0 0 0 0 0 0 0 0 0 0 0 127 0" result="hardAlpha"/>
<feOffset dx="-5" dy="5"/>
<feGaussianBlur stdDeviation="3.55"/>
<feComposite in2="hardAlpha" operator="arithmetic" k2="-1" k3="1"/>
<feColorMatrix type="matrix" values="0 0 0 0 0.356585 0 0 0 0 0.0825662 0 0 0 0 0.0825662 0 0 0 0.39 0"/>
<feBlend mode="normal" in2="shape" result="effect2_innerShadow_59_361"/>
</filter>
<filter id="filter1_di_59_361" x="265.388" y="68.8385" width="90.7458" height="81.6565" filterUnits="userSpaceOnUse" color-interpolation-filters="sRGB">
<feFlood flood-opacity="0" result="BackgroundImageFix"/>
<feColorMatrix in="SourceAlpha" type="matrix" values="0 0 0 0 0 0 0 0 0 0 0 0 0 0 0 0 0 0 127 0" result="hardAlpha"/>
<feOffset dx="5" dy="5"/>
<feGaussianBlur stdDeviation="4.05"/>
<feComposite in2="hardAlpha" operator="out"/>
<feColorMatrix type="matrix" values="0 0 0 0 0 0 0 0 0 0 0 0 0 0 0 0 0 0 0.3 0"/>
<feBlend mode="normal" in2="BackgroundImageFix" result="effect1_dropShadow_59_361"/>
<feBlend mode="normal" in="SourceGraphic" in2="effect1_dropShadow_59_361" result="shape"/>
<feColorMatrix in="SourceAlpha" type="matrix" values="0 0 0 0 0 0 0 0 0 0 0 0 0 0 0 0 0 0 127 0" result="hardAlpha"/>
<feOffset dx="-5" dy="5"/>
<feGaussianBlur stdDeviation="3.55"/>
<feComposite in2="hardAlpha" operator="arithmetic" k2="-1" k3="1"/>
<feColorMatrix type="matrix" values="0 0 0 0 0.356585 0 0 0 0 0.0825662 0 0 0 0 0.0825662 0 0 0 0.39 0"/>
<feBlend mode="normal" in2="shape" result="effect2_innerShadow_59_361"/>
</filter>
<filter id="filter2_di_59_361" x="325.811" y="84.9172" width="123.742" height="84.8775" filterUnits="userSpaceOnUse" color-interpolation-filters="sRGB">
<feFlood flood-opacity="0" result="BackgroundImageFix"/>
<feColorMatrix in="SourceAlpha" type="matrix" values="0 0 0 0 0 0 0 0 0 0 0 0 0 0 0 0 0 0 127 0" result="hardAlpha"/>
<feOffset dx="5" dy="5"/>
<feGaussianBlur stdDeviation="4.05"/>
<feComposite in2="hardAlpha" operator="out"/>
<feColorMatrix type="matrix" values="0 0 0 0 0 0 0 0 0 0 0 0 0 0 0 0 0 0 0.3 0"/>
<feBlend mode="normal" in2="BackgroundImageFix" result="effect1_dropShadow_59_361"/>
<feBlend mode="normal" in="SourceGraphic" in2="effect1_dropShadow_59_361" result="shape"/>
<feColorMatrix in="SourceAlpha" type="matrix" values="0 0 0 0 0 0 0 0 0 0 0 0 0 0 0 0 0 0 127 0" result="hardAlpha"/>
<feOffset dx="-5" dy="5"/>
<feGaussianBlur stdDeviation="3.55"/>
<feComposite in2="hardAlpha" operator="arithmetic" k2="-1" k3="1"/>
<feColorMatrix type="matrix" values="0 0 0 0 0.356585 0 0 0 0 0.0825662 0 0 0 0 0.0825662 0 0 0 0.39 0"/>
<feBlend mode="normal" in2="shape" result="effect2_innerShadow_59_361"/>
</filter>
<filter id="filter3_di_59_361" x="209.667" y="92.2774" width="86.1991" height="81.5186" filterUnits="userSpaceOnUse" color-interpolation-filters="sRGB">
<feFlood flood-opacity="0" result="BackgroundImageFix"/>
<feColorMatrix in="SourceAlpha" type="matrix" values="0 0 0 0 0 0 0 0 0 0 0 0 0 0 0 0 0 0 127 0" result="hardAlpha"/>
<feOffset dx="5" dy="5"/>
<feGaussianBlur stdDeviation="4.05"/>
<feComposite in2="hardAlpha" operator="out"/>
<feColorMatrix type="matrix" values="0 0 0 0 0 0 0 0 0 0 0 0 0 0 0 0 0 0 0.3 0"/>
<feBlend mode="normal" in2="BackgroundImageFix" result="effect1_dropShadow_59_361"/>
<feBlend mode="normal" in="SourceGraphic" in2="effect1_dropShadow_59_361" result="shape"/>
<feColorMatrix in="SourceAlpha" type="matrix" values="0 0 0 0 0 0 0 0 0 0 0 0 0 0 0 0 0 0 127 0" result="hardAlpha"/>
<feOffset dx="-5" dy="5"/>
<feGaussianBlur stdDeviation="3.55"/>
<feComposite in2="hardAlpha" operator="arithmetic" k2="-1" k3="1"/>
<feColorMatrix type="matrix" values="0 0 0 0 0.356585 0 0 0 0 0.0825662 0 0 0 0 0.0825662 0 0 0 0.39 0"/>
<feBlend mode="normal" in2="shape" result="effect2_innerShadow_59_361"/>
</filter>
<filter id="filter4_di_59_361" x="173.769" y="58.7179" width="51.8539" height="105.94" filterUnits="userSpaceOnUse" color-interpolation-filters="sRGB">
<feFlood flood-opacity="0" result="BackgroundImageFix"/>
<feColorMatrix in="SourceAlpha" type="matrix" values="0 0 0 0 0 0 0 0 0 0 0 0 0 0 0 0 0 0 127 0" result="hardAlpha"/>
<feOffset dx="5" dy="5"/>
<feGaussianBlur stdDeviation="4.05"/>
<feComposite in2="hardAlpha" operator="out"/>
<feColorMatrix type="matrix" values="0 0 0 0 0 0 0 0 0 0 0 0 0 0 0 0 0 0 0.3 0"/>
<feBlend mode="normal" in2="BackgroundImageFix" result="effect1_dropShadow_59_361"/>
<feBlend mode="normal" in="SourceGraphic" in2="effect1_dropShadow_59_361" result="shape"/>
<feColorMatrix in="SourceAlpha" type="matrix" values="0 0 0 0 0 0 0 0 0 0 0 0 0 0 0 0 0 0 127 0" result="hardAlpha"/>
<feOffset dx="-5" dy="5"/>
<feGaussianBlur stdDeviation="3.55"/>
<feComposite in2="hardAlpha" operator="arithmetic" k2="-1" k3="1"/>
<feColorMatrix type="matrix" values="0 0 0 0 0.356585 0 0 0 0 0.0825662 0 0 0 0 0.0825662 0 0 0 0.39 0"/>
<feBlend mode="normal" in2="shape" result="effect2_innerShadow_59_361"/>
</filter>
<filter id="filter5_di_59_361" x="120.433" y="96.9844" width="85.9025" height="81.549" filterUnits="userSpaceOnUse" color-interpolation-filters="sRGB">
<feFlood flood-opacity="0" result="BackgroundImageFix"/>
<feColorMatrix in="SourceAlpha" type="matrix" values="0 0 0 0 0 0 0 0 0 0 0 0 0 0 0 0 0 0 127 0" result="hardAlpha"/>
<feOffset dx="5" dy="5"/>
<feGaussianBlur stdDeviation="4.05"/>
<feComposite in2="hardAlpha" operator="out"/>
<feColorMatrix type="matrix" values="0 0 0 0 0 0 0 0 0 0 0 0 0 0 0 0 0 0 0.3 0"/>
<feBlend mode="normal" in2="BackgroundImageFix" result="effect1_dropShadow_59_361"/>
<feBlend mode="normal" in="SourceGraphic" in2="effect1_dropShadow_59_361" result="shape"/>
<feColorMatrix in="SourceAlpha" type="matrix" values="0 0 0 0 0 0 0 0 0 0 0 0 0 0 0 0 0 0 127 0" result="hardAlpha"/>
<feOffset dx="-5" dy="5"/>
<feGaussianBlur stdDeviation="3.55"/>
<feComposite in2="hardAlpha" operator="arithmetic" k2="-1" k3="1"/>
<feColorMatrix type="matrix" values="0 0 0 0 0.356585 0 0 0 0 0.0825662 0 0 0 0 0.0825662 0 0 0 0.39 0"/>
<feBlend mode="normal" in2="shape" result="effect2_innerShadow_59_361"/>
</filter>
<filter id="filter6_di_59_361" x="10.0024" y="69.3882" width="137.642" height="111.429" filterUnits="userSpaceOnUse" color-interpolation-filters="sRGB">
<feFlood flood-opacity="0" result="BackgroundImageFix"/>
<feColorMatrix in="SourceAlpha" type="matrix" values="0 0 0 0 0 0 0 0 0 0 0 0 0 0 0 0 0 0 127 0" result="hardAlpha"/>
<feOffset dx="5" dy="5"/>
<feGaussianBlur stdDeviation="4.05"/>
<feComposite in2="hardAlpha" operator="out"/>
<feColorMatrix type="matrix" values="0 0 0 0 0 0 0 0 0 0 0 0 0 0 0 0 0 0 0.3 0"/>
<feBlend mode="normal" in2="BackgroundImageFix" result="effect1_dropShadow_59_361"/>
<feBlend mode="normal" in="SourceGraphic" in2="effect1_dropShadow_59_361" result="shape"/>
<feColorMatrix in="SourceAlpha" type="matrix" values="0 0 0 0 0 0 0 0 0 0 0 0 0 0 0 0 0 0 127 0" result="hardAlpha"/>
<feOffset dx="-5" dy="5"/>
<feGaussianBlur stdDeviation="3.55"/>
<feComposite in2="hardAlpha" operator="arithmetic" k2="-1" k3="1"/>
<feColorMatrix type="matrix" values="0 0 0 0 0.356585 0 0 0 0 0.0825662 0 0 0 0 0.0825662 0 0 0 0.39 0"/>
<feBlend mode="normal" in2="shape" result="effect2_innerShadow_59_361"/>
</filter>
</defs>
</svg>
